<?xml version="1.0" encoding="utf-8"?>
<!-- Generator: Adobe Illustrator 27.0.1, SVG Export Plug-In . SVG Version: 6.00 Build 0)  -->
<svg version="1.1" id="Layer_1" xmlns="http://www.w3.org/2000/svg" xmlns:xlink="http://www.w3.org/1999/xlink" x="0px" y="0px"
	 viewBox="0 0 512 512" style="enable-background:new 0 0 512 512;" xml:space="preserve">
<style type="text/css">
	.st0{fill:#FFFFFF;}
</style>
<g>
	<path class="st0" d="M488.1,285.3c-11.7,0-21.2-9.5-21.2-21.2v-8c0-14.5-1.5-29.2-4.6-43.7c-2.5-11.3,4.9-22.6,16.3-25.1
		c1.5-0.3,3-0.5,4.4-0.5c9.9,0,18.6,7.1,20.6,16.8l0.2,0.8l0.1,0.1c3.5,16.9,5.3,34.2,5.3,51.5v8
		C509.3,275.8,499.8,285.3,488.1,285.3z"/>
	<path d="M483.1,189.7c8.6,0,16.1,6.1,17.8,14.5l0.3,1.7l0.1,0.1c3.3,16.4,5,33.3,5,50.1v8c0,10.1-8.2,18.3-18.3,18.3
		s-18.3-8.2-18.3-18.3v-8c0-14.7-1.6-29.6-4.6-44.3c-1-4.7-0.1-9.6,2.6-13.7c2.7-4.1,6.8-6.9,11.6-8
		C480.6,189.9,481.9,189.7,483.1,189.7 M483.1,184.1c-1.7,0-3.4,0.2-5,0.5c-12.9,2.8-21.3,15.5-18.5,28.4
		c2.9,13.9,4.5,28.3,4.5,43.1v8c0,13.3,10.7,24,24,24s24-10.7,24-24v-8c0-18.1-1.9-35.8-5.5-52.9l-0.1-0.1
		C504.2,191.8,494.2,184.1,483.1,184.1L483.1,184.1z"/>
</g>
<g>
	<path class="st0" d="M84,397.2c-2,0-4-0.3-5.9-0.8c-11.2-3.2-17.7-15-14.6-26.2l0.1-0.4v-0.1c0.1-0.2,0.1-0.4,0.2-0.7
		c0.1-0.2,0.1-0.5,0.2-0.8c0.6-2.2,1.2-4.5,1.7-6.8C67,356,69,347.4,71,336.2c5.1-28.2,7.6-55.2,7.6-80.2c0-36.5,11.1-71.6,32-101.6
		c3.9-5.7,10.4-9,17.3-9c4.3,0,8.6,1.3,12.2,3.8c4.6,3.2,7.7,8.1,8.7,13.6c1,5.5-0.3,11.2-3.5,15.8C129.4,201.4,121,228.1,121,256
		c0,34.9-4.5,67-8.4,87.8c-2.2,12.3-4.4,21.7-5.8,27.4c-0.7,3.2-1.3,5.7-1.9,7.5c-0.3,0.9-0.5,1.6-0.6,2.2l-0.3,0.9v0.7
		C101.2,391.2,93.1,397.2,84,397.2C84,397.2,84,397.2,84,397.2z"/>
	<path d="M127.9,148.2L127.9,148.2c3.8,0,7.4,1.2,10.5,3.3c8.3,5.8,10.3,17.2,4.5,25.5c-16.2,23.2-24.8,50.5-24.8,79
		c0,34.7-4.5,66.6-8.3,87.3c-2.2,12.2-4.3,21.6-5.7,27.3l0,0.1l0,0.1c-0.6,3-1.3,5.4-1.8,7.2c-0.3,0.9-0.5,1.6-0.6,2.2l-0.1,0.3
		l-0.3,0.9v0.7c-2.6,7.3-9.5,12.3-17.2,12.3c-1.7,0-3.4-0.2-5.1-0.7c-9.7-2.8-15.4-13-12.6-22.7l0.2-0.8V370c0-0.2,0.1-0.3,0.1-0.5
		c0-0.2,0.1-0.4,0.2-0.7l0,0l0,0c0.6-2.2,1.2-4.5,1.7-6.8c1.3-5.3,3.2-14,5.3-25.2c5.1-28.3,7.7-55.5,7.7-80.7
		c0-35.9,10.9-70.5,31.5-100C116.4,151.1,122,148.2,127.9,148.2 M127.9,142.5c-7.5,0-15,3.6-19.6,10.3C87.9,182,75.8,217.6,75.8,256
		c0,30.1-3.8,58.6-7.6,79.7c-1.9,10.5-3.8,19.1-5.2,24.9c-0.7,2.9-1.3,5.2-1.7,6.7c-0.2,0.7-0.3,1.3-0.4,1.6l-0.1,0.4v0.1
		c-3.6,12.7,3.7,26,16.5,29.7c2.2,0.6,4.5,1,6.7,1c10.4,0,20-6.9,23-17.5h-0.1v-0.1v-0.2l0.2-0.6c0.1-0.5,0.3-1.2,0.6-2.1
		c0.5-1.8,1.2-4.4,1.9-7.7c1.6-6.6,3.7-16.1,5.8-27.6c4.2-22.9,8.4-54.4,8.4-88.3c0-28.2,8.8-54.3,23.8-75.7
		c7.6-10.9,5-25.8-5.9-33.4C137.5,144,132.7,142.5,127.9,142.5L127.9,142.5z"/>
</g>
<g>
	<path class="st0" d="M223.9,509.1c-3,0-5.8-0.6-8.6-1.8c-8.3-3.7-13.1-12.3-12.5-20.9l0.1,0.2l1.9-7.6c0.1-0.2,0.2-0.4,0.3-0.7
		c0.1-0.3,0.2-0.7,0.4-1.1l0-0.1l0-0.1c0.5-1.4,1.6-4.5,3.2-9.3c4-12.4,7.3-25.5,10.4-40.1c3.6-16.8,6.7-35.9,9.2-56.8l-4-0.2h4
		l0,0.2c4.2-35.2,6.3-73.9,6.3-114.8c0-11.7,9.5-21.2,21.2-21.2c11.7,0,21.2,9.5,21.2,21.2c0,84.8-9,145-16.6,180.5
		c-4.4,20.8-8.8,35.6-11.6,44.4c-1.6,5.1-3.1,9-4,11.4l-0.6,1.5c-0.2,0.6-0.4,1.1-0.6,1.5l-0.4,0.9l-0.2,0.7
		C239.6,504.4,232.1,509.1,223.9,509.1z"/>
	<path d="M256,237.7c10.1,0,18.3,8.2,18.3,18.3c0,84.6-9,144.5-16.6,179.9c-4.4,20.7-8.7,35.4-11.6,44.1c-1.6,5-3,8.7-3.9,11.2
		c-0.2,0.5-0.4,1-0.6,1.5c-0.2,0.5-0.4,1-0.6,1.5l-0.3,0.8l-0.1,0.3l-0.1,0.3l-0.1,0.3l0,0.1c-3.1,6.4-9.5,10.4-16.6,10.4
		c-2.6,0-5-0.5-7.4-1.6c-6.9-3.1-11-9.9-10.9-17.1l1.9-7.7c0.1-0.2,0.2-0.4,0.2-0.6c0.1-0.3,0.2-0.6,0.4-0.9l0.1-0.2l0.1-0.2
		c0.5-1.5,1.7-4.6,3.3-9.4l0,0l0,0c4-12.5,7.4-25.7,10.4-40.3c3.6-16.9,6.8-36.1,9.3-57.1l-4.8-0.6h0l4.8,0.6
		c4.2-35.4,6.3-74.1,6.3-115.2C237.7,245.9,245.9,237.7,256,237.7 M256,232c-13.3,0-24,10.7-24,24c0,45.4-2.6,83.4-6.3,114.5v0.1
		v-0.1c-2.7,22.5-5.9,41.3-9.2,56.6c-3.8,18.2-7.6,31.3-10.3,39.8c-1.4,4.2-2.5,7.3-3.2,9.2c-0.4,0.9-0.6,1.6-0.8,2l-0.1,0.4
		l-0.1-0.2c-5.3,12.1,0.1,26.2,12.2,31.6c3.2,1.4,6.5,2.1,9.7,2.1c9.2,0,18-5.3,22-14.3v-0.1l0.1-0.3l0.4-0.9
		c0.3-0.8,0.7-1.8,1.2-3.1c1-2.7,2.4-6.5,4-11.5c3.3-10.1,7.5-24.9,11.7-44.7c8.5-39.8,16.7-99.5,16.7-181.1
		C280,242.7,269.3,232,256,232L256,232z"/>
</g>
<g>
	<path class="st0" d="M24,285.2c-11.7,0-21.2-9.5-21.2-21.2v-8c0-67.6,26.3-131.2,74.1-179C124.8,29.2,188.4,2.8,256,2.8
		c40.7,0,81.1,9.9,116.9,28.5c34.6,18.1,65.1,44.4,88.1,76.1c3.3,4.6,4.7,10.1,3.8,15.7c-0.9,5.6-3.9,10.5-8.5,13.8
		c-3.6,2.6-7.9,4-12.4,4c-6.8,0-13.2-3.3-17.2-8.7C387.2,77.8,323.3,45.2,256,45.2C139.7,45.2,45.2,139.7,45.2,256v8
		C45.2,275.7,35.7,285.2,24,285.2z"/>
	<path d="M256,5.7c20.5,0,40.8,2.5,60.5,7.4c19.1,4.7,37.6,11.8,55.1,20.9c34.3,17.9,64.4,43.9,87.1,75.3c2.9,3.9,4,8.8,3.3,13.6
		c-0.8,4.8-3.4,9.1-7.3,12c-3.1,2.3-6.8,3.5-10.7,3.5c-5.9,0-11.4-2.8-14.9-7.5C388.9,75.4,324.2,42.3,256,42.3
		C138.2,42.3,42.3,138.2,42.3,256v8c0,10.1-8.2,18.3-18.3,18.3S5.7,274.1,5.7,264v-8c0-33.8,6.6-66.6,19.7-97.4
		C37.9,128.7,56,102,79,79c23-23,49.8-41,79.6-53.6C189.4,12.3,222.2,5.7,256,5.7 M256,0C114.6,0,0,114.6,0,256v8
		c0,13.3,10.7,24,24,24s24-10.7,24-24v-8c0-114.9,93.1-208,208-208c69.3,0,130.6,33.8,168.5,86c4.7,6.5,12,9.9,19.4,9.9
		c4.9,0,9.8-1.5,14.1-4.6c10.7-7.8,13.1-22.8,5.3-33.5C416.8,41.7,341.3,0,256,0L256,0z"/>
</g>
<g>
	<path class="st0" d="M404.3,405.1c-0.9,0-1.8-0.1-2.7-0.2c-11.5-1.5-19.8-12.1-18.4-23.6l0-0.1l0.1-0.4l0.2-2.2
		c0.2-1.8,0.5-4.4,0.9-7.7c0.8-7.8,1.7-17.1,2.7-28.5c1.8-21.1,3.9-53.1,3.9-86.2c0-74.5-60.6-135-135-135
		c-11.7,0-23.3,1.5-34.3,4.4h-0.1l-0.4,0.1c-1.8,0.5-3.6,0.7-5.4,0.7c-9.6,0-18-6.5-20.4-15.8c-1.4-5.4-0.7-11.1,2.2-16
		c2.9-4.9,7.4-8.4,12.9-9.8c14.9-3.9,30.2-5.9,45.5-5.9c97.8,0,177.4,79.6,177.4,177.4c0,26.4-1.4,56.7-4.1,89.8
		c-0.9,10.8-1.9,21.3-2.8,29.5c-0.4,3.2-0.7,6-0.9,7.9l0,0.5l-0.3,2.1l-0.1,0.8v0.2C423.7,397.2,414.8,405.1,404.3,405.1
		C404.3,405.1,404.3,405.1,404.3,405.1z"/>
	<path d="M256,81.5c46.6,0,90.4,18.2,123.4,51.1c33,33,51.1,76.8,51.1,123.4c0,26.4-1.4,56.5-4.1,89.5c-0.9,10.8-1.9,21.2-2.8,29.4
		c-0.4,3.1-0.6,5.7-0.8,7.6l-0.1,0.6l-0.3,2l-0.1,0.5l-0.1,0.5v0.3c-1.3,9-9,15.7-18.1,15.7c-0.8,0-1.6-0.1-2.3-0.2
		c-10-1.3-17.1-10.5-15.9-20.5l0,0l0-0.1l0.1-0.3l0-0.3l0.2-2c0.2-1.8,0.5-4.5,0.9-7.8l0,0l0,0c0.8-7.8,1.7-17.1,2.7-28.5
		c1.8-21.1,3.9-53.2,3.9-86.5c0-76-61.8-137.9-137.9-137.9c-11.9,0-23.5,1.5-34.6,4.4h-0.1l-0.7,0.2c-1.5,0.4-3.1,0.6-4.7,0.6
		c-8.3,0-15.6-5.6-17.7-13.7c-1.3-4.7-0.6-9.6,1.9-13.9c2.5-4.2,6.4-7.2,11.2-8.5C225.9,83.4,240.9,81.5,256,81.5 M256,75.8
		c-15.9,0-31.4,2.1-46.2,6c-12.8,3.4-20.5,16.5-17.1,29.3c2.9,10.8,12.6,17.9,23.2,17.9c2,0,4.1-0.3,6.1-0.8h0.1
		c10.8-2.9,22.1-4.4,33.9-4.4c73,0,132.2,59.2,132.2,132.2c0,31.1-1.9,62.4-3.9,86c-1,11.8-2,21.6-2.7,28.4
		c-0.4,3.4-0.7,6.1-0.9,7.9l-0.2,2l-0.1,0.5v0.1c-1.6,13.2,7.7,25.1,20.8,26.8c1,0.1,2.1,0.2,3.1,0.2c11.9,0,22.2-8.9,23.7-21v-0.2
		l0.1-0.6l0.3-2.2c0.2-1.9,0.5-4.8,0.9-8.3c0.8-7.2,1.8-17.4,2.8-29.6c2-24.4,4.1-57.1,4.1-90C436.2,156.5,355.5,75.8,256,75.8
		L256,75.8z"/>
</g>
<g>
	<path class="st0" d="M324.9,437.2c-1.2,0-2.5-0.1-3.7-0.3c-11.5-2-19.2-13-17.2-24.5l0-0.2v-0.1l0-0.2c0.1-0.5,0.2-1.2,0.3-2.2
		c0.3-1.8,0.7-4.5,1.2-8.1c0.8-6.2,2.2-16.7,3.7-31.7c2.5-24.5,5.5-64.2,5.5-113.9c0-32.4-26.4-58.8-58.8-58.8s-58.8,26.4-58.8,58.8
		c0,14.2-0.3,27.7-0.9,40.2c-1.2,26.7-3.7,51.9-7.3,75c-2.2,14.3-4.4,24.8-5.8,31.1c-0.8,3.5-1.5,6.3-2,8.3
		c-0.2,0.6-0.3,1.2-0.5,1.7l-0.3,1.2l-0.2,0.4v0.3c-2.7,8.9-11,15-20.2,15c-2,0-4-0.3-5.9-0.8c-11.2-3.2-17.7-15-14.6-26.1l0.1-0.2
		c0.1-0.2,0.1-0.5,0.2-0.9c0.1-0.2,0.1-0.5,0.2-0.8l0-0.1l0-0.1c0.1-0.7,0.4-1.6,0.6-2.7c0.3-1.2,0.6-2.6,1-4.2
		c1.9-8.7,3.7-18.3,5.2-28.4c5.1-33.8,7.7-70.4,7.7-108.8c0-55.8,45.4-101.2,101.2-101.2s101.2,45.4,101.2,101.2
		c0,51.1-3.1,92.4-5.7,118.1c-1.7,16.2-3.1,27-4,33.3c-0.3,2.7-0.7,4.9-1,6.7c-0.1,0.8-0.2,1.6-0.3,2.2c-0.1,0.7-0.2,1.3-0.3,1.9
		l-0.1,0.5l-0.1,1v0.8C343.5,430.2,334.9,437.2,324.9,437.2C324.9,437.2,324.9,437.2,324.9,437.2z"/>
	<path d="M255.9,157.6c54.2,0,98.3,44.1,98.3,98.3c0,51-3.1,92.2-5.7,117.8c-1.7,16.2-3.1,27-4,33.2l0,0l0,0
		c-0.3,2.6-0.7,4.8-0.9,6.6c-0.1,0.8-0.2,1.5-0.3,2.2c-0.1,0.8-0.2,1.4-0.3,1.9c0,0.2-0.1,0.4-0.1,0.5l0,0.1l0,0.1l-0.1,0.7
		l-0.1,0.4v0.4v0.2v0.1v0c-1.9,8.3-9.3,14.3-17.8,14.3c-1.1,0-2.1-0.1-3.2-0.3c-10-1.8-16.7-11.3-14.9-21.2l0.1-0.5v0
		c0.1-0.6,0.2-1.3,0.3-2.3c0.3-1.9,0.7-4.5,1.2-8.1c0.9-6.2,2.2-16.8,3.7-31.8c2.5-24.6,5.5-64.4,5.5-114.2
		c0-34-27.7-61.7-61.7-61.7S194.3,222,194.3,256c0,14.1-0.3,27.6-0.9,40c-1.2,26.6-3.6,51.7-7.2,74.7c-2.2,14.2-4.3,24.7-5.7,30.9
		c-0.8,3.5-1.4,6.1-1.9,8.1c-0.2,0.6-0.3,1.2-0.5,1.7l-0.3,0.9l-0.4,0.7v0.5c-2.5,7.5-9.5,12.6-17.3,12.6c-1.7,0-3.4-0.2-5.1-0.7
		c-9.7-2.8-15.3-12.9-12.7-22.6l0.1-0.2c0.1-0.4,0.2-0.8,0.3-1.1c0-0.2,0.1-0.4,0.2-0.7l0.1-0.2l0-0.2c0.1-0.7,0.4-1.5,0.6-2.6
		c0.3-1.2,0.6-2.6,1-4.2c1.9-8.8,3.7-18.4,5.3-28.6c5.2-33.9,7.8-70.7,7.8-109.3C157.6,201.7,201.7,157.6,255.9,157.6 M255.9,151.9
		c-57.4,0-104,46.6-104,104c0,46.7-3.9,83.4-7.7,108.4c-1.9,12.5-3.8,21.9-5.2,28.2c-0.7,3.1-1.3,5.5-1.6,6.9
		c-0.2,0.7-0.3,1.3-0.4,1.6l-0.1,0.3c-3.6,12.7,3.7,26,16.5,29.7c2.2,0.6,4.5,1,6.7,1c10.4,0,20-6.9,23-17.5l0,0.1v-0.1l0.1-0.2
		l0.2-0.7c0.1-0.5,0.3-1.3,0.6-2.3c0.5-2,1.2-4.8,2-8.4c1.6-7.2,3.7-17.8,5.8-31.3c3-19.2,5.9-44.6,7.3-75.3
		c0.6-12.6,0.9-26,0.9-40.3c0-30.9,25.1-56,56-56c30.9,0,56,25.1,56,56c0,47.1-2.7,86.3-5.5,113.6c-1.4,13.7-2.7,24.3-3.7,31.6
		c-0.5,3.6-0.9,6.3-1.2,8.1c-0.1,0.9-0.2,1.6-0.3,2l-0.1,0.5v0.1c-2.3,13.1,6.5,25.5,19.5,27.8c1.4,0.2,2.8,0.4,4.2,0.4
		c11.4,0,21.6-8.2,23.6-19.9l-0.1-0.1V420v-0.2l0.1-0.7c0.1-0.6,0.2-1.4,0.4-2.4c0.3-2.1,0.8-5.1,1.3-9c1.1-7.8,2.5-19.1,4-33.4
		c2.9-28.7,5.7-69.5,5.7-118.4C359.9,198.5,313.3,151.9,255.9,151.9L255.9,151.9z"/>
</g>
</svg>
