<?xml version="1.0" encoding="utf-8"?>
<!-- Generator: Adobe Illustrator 27.0.1, SVG Export Plug-In . SVG Version: 6.00 Build 0)  -->
<svg version="1.1" id="Layer_1" xmlns="http://www.w3.org/2000/svg" xmlns:xlink="http://www.w3.org/1999/xlink" x="0px" y="0px"
	 viewBox="0 0 512 512" style="enable-background:new 0 0 512 512;" xml:space="preserve">
<style type="text/css">
	.st0{fill:#FFFFFF;}
</style>
<path class="st0" d="M48,256c0-114.9,93.1-208,208-208c69.3,0,130.6,33.8,168.5,86c7.8,10.7,22.8,13.1,33.5,5.3s13.1-22.8,5.3-33.5
	C416.8,41.7,341.3,0,256,0C114.6,0,0,114.6,0,256v8c0,13.3,10.7,24,24,24s24-10.7,24-24V256z M506.5,203.1
	c-2.7-13-15.5-21.3-28.4-18.5s-21.3,15.5-18.5,28.4c2.9,13.9,4.5,28.3,4.5,43.1v8c0,13.3,10.7,24,24,24s24-10.7,24-24v-8
	c0-18.1-1.9-35.8-5.5-52.9L506.5,203.1z M222.1,128.2c10.8-2.9,22.1-4.4,33.9-4.4c73,0,132.2,59.2,132.2,132.2
	c0,31.1-1.9,62.4-3.9,86c-1,11.8-2,21.6-2.7,28.4c-0.4,3.4-0.7,6.1-0.9,7.9l-0.2,2l-0.1,0.5v0.1l0,0l0,0
	c-1.6,13.2,7.7,25.1,20.8,26.8s25.1-7.7,26.8-20.8l-23.8-3c23.8,3,23.8,3,23.8,3l0,0l0,0l0,0v-0.2l0.1-0.6l0.3-2.2
	c0.2-1.9,0.5-4.8,0.9-8.3c0.8-7.2,1.8-17.4,2.8-29.6c2-24.4,4.1-57.1,4.1-90c0-99.5-80.7-180.2-180.2-180.2c-15.9,0-31.4,2.1-46.2,6
	c-12.8,3.4-20.5,16.5-17.1,29.3s16.5,20.5,29.3,17.1L222.1,128.2z M147.6,180.3c7.6-10.9,5-25.8-5.9-33.4s-25.8-5-33.4,5.9
	C87.9,182,75.8,217.6,75.8,256c0,30.1-3.8,58.6-7.6,79.7c-1.9,10.5-3.8,19.1-5.2,24.9c-0.7,2.9-1.3,5.2-1.7,6.7
	c-0.2,0.7-0.3,1.3-0.4,1.6l-0.1,0.4v0.1l0,0c-3.6,12.7,3.7,26,16.5,29.7s26-3.7,29.7-16.5L83.8,376c23.1,6.6,23.1,6.6,23.1,6.6l0,0
	l0,0v-0.1v-0.2l0.2-0.6c0.1-0.5,0.3-1.2,0.6-2.1c0.5-1.8,1.2-4.4,1.9-7.7c1.6-6.6,3.7-16.1,5.8-27.6c4.2-22.9,8.4-54.4,8.4-88.3
	C123.8,227.8,132.6,201.7,147.6,180.3L147.6,180.3z M256,200c30.9,0,56,25.1,56,56c0,47.1-2.7,86.3-5.5,113.6
	c-1.4,13.7-2.7,24.3-3.7,31.6c-0.5,3.6-0.9,6.3-1.2,8.1c-0.1,0.9-0.2,1.6-0.3,2l-0.1,0.5v0.1l0,0l0,0l0,0
	c-2.3,13.1,6.5,25.5,19.5,27.8s25.5-6.4,27.8-19.5l-23.7-4.2c23.6,4.1,23.6,4.1,23.6,4.1l0,0l0,0V420v-0.2l0.1-0.7
	c0.1-0.6,0.2-1.4,0.4-2.4c0.3-2.1,0.8-5.1,1.3-9c1.1-7.8,2.5-19.1,4-33.4c2.9-28.7,5.7-69.5,5.7-118.4c0-57.4-46.6-104-104-104
	s-104,46.6-104,104c0,46.7-3.9,83.4-7.7,108.4c-1.9,12.5-3.8,21.9-5.2,28.2c-0.7,3.1-1.3,5.5-1.6,6.9c-0.2,0.7-0.3,1.3-0.4,1.6
	l-0.1,0.3c-3.6,12.7,3.7,26,16.5,29.7s26-3.7,29.7-16.5L160,408c23.1,6.6,23.1,6.6,23.1,6.6l0,0l0,0v-0.1l0.1-0.2l0.2-0.7
	c0.1-0.5,0.3-1.3,0.6-2.3c0.5-2,1.2-4.8,2-8.4c1.6-7.2,3.7-17.8,5.8-31.3c3-19.2,5.9-44.6,7.3-75.3c0.6-12.6,0.9-26,0.9-40.3
	C200,225.1,225.1,200,256,200L256,200z M280,256c0-13.3-10.7-24-24-24s-24,10.7-24,24c0,45.4-2.6,83.4-6.3,114.5L202,478.3l0,0
	c-5.3,12.1,0.1,26.2,12.2,31.6c12.1,5.4,26.3-0.1,31.7-12.2L224,488c21.9,9.7,21.9,9.7,21.9,9.7l0,0l0,0v-0.1l0.1-0.3l0.4-0.9
	c0.3-0.8,0.7-1.8,1.2-3.1c1-2.7,2.4-6.5,4-11.5c3.3-10.1,7.5-24.9,11.7-44.7C271.8,397.3,280,337.6,280,256z M225.7,370.5
	L225.7,370.5L256,232L225.7,370.5z M225.7,370.5c-2.7,22.5-5.9,41.3-9.2,56.6c-3.8,18.2-7.6,31.3-10.3,39.8
	c-1.4,4.2-2.5,7.3-3.2,9.2c-0.4,0.9-0.6,1.6-0.8,2l-0.1,0.4l23.6-107.9V370.5z"/>
</svg>
