<?xml version="1.0" encoding="utf-8"?>
<!-- Generator: Adobe Illustrator 26.5.0, SVG Export Plug-In . SVG Version: 6.00 Build 0)  -->
<svg version="1.1" id="Layer_1" xmlns="http://www.w3.org/2000/svg" xmlns:xlink="http://www.w3.org/1999/xlink" x="0px" y="0px"
	 viewBox="0 0 215.4 215.4" style="enable-background:new 0 0 215.4 215.4;" xml:space="preserve">
<style type="text/css">
	.st0{fill:#00AEEF;}
	.st1{fill:#00A651;}
	.st2{fill:#FFF200;}
	.st3{fill:#6ABD45;}
	.st4{fill:#ED1C24;}
	.st5{fill:#EC008C;}
	.st6{fill:#2E3192;}
</style>
<path class="st0" d="M178.6,72.3c0,3.1-0.2,6.2-0.6,9.2c-10.3-5.8-22.2-9.2-34.8-9.2c-12.9,0-25,3.4-35.4,9.5
	c-10.4-6-22.5-9.5-35.4-9.5c-12.7,0-24.5,3.3-34.8,9.2c-0.4-3-0.6-6.1-0.6-9.2c0-39.1,31.7-70.9,70.9-70.9
	C146.9,1.4,178.6,33.1,178.6,72.3z"/>
<path class="st1" d="M107.7,81.8C89,92.6,75.8,111.7,72.9,134c-19-10.7-32.5-30-35.4-52.6c10.3-5.8,22.2-9.2,34.8-9.2
	C85.2,72.3,97.3,75.7,107.7,81.8z"/>
<path class="st2" d="M107.7,204.5c-10.4,6-22.5,9.5-35.4,9.5c-39.1,0-70.9-31.7-70.9-70.9c0-26.5,14.5-49.6,36-61.7
	c2.9,22.6,16.4,41.8,35.4,52.6c-0.4,3-0.6,6.1-0.6,9.1C72.3,169.4,86.5,192.3,107.7,204.5z"/>
<path class="st3" d="M107.7,143.1c-12.7,0-24.6-3.3-34.8-9.1c2.9-22.3,16.2-41.4,34.8-52.2c18.7,10.8,32,29.9,34.8,52.2
	C132.3,139.8,120.4,143.1,107.7,143.1z"/>
<path d="M142.6,134c-10.3,5.8-22.2,9.1-34.8,9.1s-24.6-3.3-34.8-9.1c2.9-22.3,16.2-41.4,34.8-52.2C126.4,92.6,139.7,111.7,142.6,134
	z"/>
<path class="st4" d="M143.1,143.1c0,26.2-14.2,49.1-35.4,61.4c-21.2-12.2-35.4-35.2-35.4-61.4c0-3.1,0.2-6.1,0.6-9.1
	c10.3,5.8,22.2,9.1,34.8,9.1s24.6-3.3,34.9-9.1C142.9,137,143.1,140.1,143.1,143.1z"/>
<path class="st5" d="M214,143.1c0,39.1-31.7,70.9-70.9,70.9c-12.9,0-25-3.4-35.4-9.5c21.2-12.3,35.4-35.2,35.4-61.4
	c0-3.1-0.2-6.1-0.6-9.1c19-10.7,32.5-30,35.4-52.6C199.5,93.6,214,116.7,214,143.1z"/>
<path class="st6" d="M178,81.4c-2.9,22.6-16.4,41.8-35.4,52.6c-2.9-22.3-16.2-41.4-34.8-52.2c10.4-6,22.5-9.5,35.4-9.5
	C155.8,72.3,167.7,75.6,178,81.4z"/>
</svg>
