<?xml version="1.0" encoding="utf-8"?>
<!-- Generator: Adobe Illustrator 26.5.0, SVG Export Plug-In . SVG Version: 6.00 Build 0)  -->
<svg version="1.1" id="Layer_1" xmlns="http://www.w3.org/2000/svg" xmlns:xlink="http://www.w3.org/1999/xlink" x="0px" y="0px"
	 viewBox="0 0 215.43 215.43" style="enable-background:new 0 0 215.43 215.43;" xml:space="preserve">
<style type="text/css">
	.st0{fill:#FF0000;}
	.st1{fill:#FFFF00;}
	.st2{fill:#00FF00;}
	.st3{fill:#FFFFFF;}
	.st4{fill:#00FFFF;}
	.st5{fill:#0000FF;}
	.st6{fill:#FF00FF;}
</style>
<path class="st0" d="M178.58,72.28c0,3.1-0.2,6.15-0.59,9.15c-10.29-5.83-22.18-9.15-34.84-9.15c-12.91,0-25.01,3.45-35.43,9.48
	c-10.43-6.03-22.53-9.48-35.44-9.48c-12.67,0-24.55,3.32-34.84,9.15c-0.39-3-0.59-6.05-0.59-9.15c0-39.14,31.73-70.86,70.86-70.86
	C146.85,1.42,178.58,33.14,178.58,72.28z"/>
<path class="st1" d="M107.72,81.76C89.04,92.56,75.75,111.65,72.87,134c-18.99-10.74-32.53-29.99-35.43-52.57
	c10.29-5.83,22.17-9.15,34.84-9.15C85.19,72.28,97.29,75.73,107.72,81.76z"/>
<path class="st2" d="M107.72,204.54c-10.43,6.03-22.53,9.48-35.44,9.48c-39.14,0-70.86-31.73-70.86-70.87
	c0-26.47,14.51-49.56,36.02-61.72c2.9,22.58,16.44,41.83,35.43,52.57c-0.39,3-0.59,6.05-0.59,9.15
	C72.28,169.38,86.54,192.29,107.72,204.54z"/>
<path class="st2" d="M107.71,143.15c-12.67,0-24.56-3.32-34.84-9.15c2.88-22.35,16.17-41.44,34.85-52.24
	c18.68,10.81,31.97,29.9,34.84,52.24C132.27,139.83,120.38,143.15,107.71,143.15z"/>
<path class="st3" d="M142.56,134c-10.29,5.83-22.18,9.15-34.85,9.15c-12.67,0-24.56-3.32-34.84-9.15
	c2.88-22.35,16.17-41.44,34.85-52.24C126.4,92.57,139.69,111.66,142.56,134z"/>
<path class="st4" d="M143.15,143.15c0,26.23-14.25,49.13-35.43,61.39c-21.18-12.25-35.44-35.16-35.44-61.39
	c0-3.1,0.2-6.15,0.59-9.15c10.28,5.83,22.17,9.15,34.84,9.15c12.67,0,24.56-3.32,34.85-9.15C142.95,137,143.15,140.05,143.15,143.15
	z"/>
<path class="st5" d="M214.01,143.15c0,39.14-31.72,70.87-70.86,70.87c-12.91,0-25.01-3.45-35.43-9.48
	c21.18-12.26,35.43-35.16,35.43-61.39c0-3.1-0.2-6.15-0.59-9.15c18.99-10.74,32.53-29.99,35.43-52.57
	C199.5,93.59,214.01,116.67,214.01,143.15z"/>
<path class="st6" d="M177.99,81.43c-2.9,22.58-16.44,41.83-35.43,52.57c-2.87-22.34-16.16-41.43-34.84-52.24
	c10.42-6.03,22.52-9.48,35.43-9.48C155.81,72.28,167.7,75.6,177.99,81.43z"/>
</svg>
