<?xml version="1.0" encoding="utf-8"?>
<!-- Generator: Adobe Illustrator 27.0.1, SVG Export Plug-In . SVG Version: 6.00 Build 0)  -->
<svg version="1.1" id="Layer_1" xmlns="http://www.w3.org/2000/svg" xmlns:xlink="http://www.w3.org/1999/xlink" x="0px" y="0px"
	 viewBox="0 0 260 260" style="enable-background:new 0 0 260 260;" xml:space="preserve">
<style type="text/css">
	.st0{fill:#FFFFFF;}
	.st1{fill:#4C4C4C;}
	.st2{fill:none;stroke:#000000;stroke-width:19.8425;stroke-miterlimit:10;}
</style>
<g>
	<g>
		<circle class="st0" cx="130" cy="130" r="115.3"/>
		<path class="st1" d="M130,24.6c58.2,0,105.4,47.2,105.4,105.4S188.2,235.4,130,235.4S24.6,188.2,24.6,130S71.8,24.6,130,24.6
			 M130,4.7c-33.5,0-64.9,13-88.6,36.7C17.8,65.1,4.7,96.5,4.7,130s13,64.9,36.7,88.6c23.7,23.7,55.1,36.7,88.6,36.7
			s64.9-13,88.6-36.7c23.7-23.7,36.7-55.1,36.7-88.6s-13-64.9-36.7-88.6C194.9,17.8,163.5,4.7,130,4.7L130,4.7z"/>
		<path d="M130,24.6c58.2,0,105.4,47.2,105.4,105.4c0,58.2-47.2,105.4-105.4,105.4S24.6,188.2,24.6,130
			C24.6,71.8,71.8,24.6,130,24.6 M130,10.4c-31.9,0-62,12.4-84.6,35c-22.6,22.6-35,52.6-35,84.6c0,31.9,12.4,62,35,84.6
			c22.6,22.6,52.6,35,84.6,35s62-12.4,84.6-35c22.6-22.6,35-52.6,35-84.6c0-31.9-12.4-62-35-84.6C192,22.8,161.9,10.4,130,10.4
			L130,10.4z"/>
	</g>
	<polyline class="st2" points="96.8,24.6 102.9,178.7 233.2,178.7 	"/>
</g>
</svg>
