<?xml version="1.0" encoding="utf-8"?>
<!-- Generator: Adobe Illustrator 27.0.1, SVG Export Plug-In . SVG Version: 6.00 Build 0)  -->
<svg version="1.1" id="Layer_1" xmlns="http://www.w3.org/2000/svg" xmlns:xlink="http://www.w3.org/1999/xlink" x="0px" y="0px"
	 viewBox="0 0 512 512" style="enable-background:new 0 0 512 512;" xml:space="preserve">
<style type="text/css">
	.st0{fill:#FFFFFF;}
</style>
<g>
	<path class="st0" d="M256,17c4.1,0,9.9,3.2,16.1,9.1c7.3,7,18.4,20.6,29.7,46.1c9,20.3,16.6,44.4,22.1,70.8H188.2
		c5.6-26.3,13.1-50.4,22-70.8c11.3-25.4,22.4-39.1,29.7-46.1C246.1,20.2,251.9,17,256,17 M152.1,40.7c-13.5,29-24.1,63.8-31.2,102.3
		H45.4c13.4-24.8,31.2-47.3,52.4-66.1C114.1,62.4,132.5,50.2,152.1,40.7 M359.9,40.7c19.6,9.5,38,21.7,54.4,36.2
		c21.2,18.7,39,41.3,52.3,66.1h-75.5C384,104.6,373.3,69.7,359.9,40.7 M490.4,209c3.1,15.4,4.6,31.2,4.6,47c0,15.8-1.6,31.6-4.6,47
		h-91c1.1-15.5,1.7-31.2,1.7-47s-0.6-31.5-1.7-47H490.4 M333.2,209c1.2,15.1,1.8,30.9,1.8,47c0,15.6-0.6,31.3-1.8,47H178.8
		c-1.2-15.1-1.8-30.9-1.8-47c0-15.6,0.6-31.3,1.8-47H333.2 M112.7,209c-1.1,15.5-1.7,31.2-1.7,47s0.6,31.5,1.7,47h-91
		c-3.1-15.4-4.6-31.2-4.6-47c0-15.8,1.6-31.6,4.6-47H112.7 M466.6,369c-13.4,24.8-31.2,47.3-52.3,66.1
		c-16.4,14.5-34.7,26.7-54.4,36.2c13.4-29,24.1-63.8,31.2-102.3H466.6 M323.8,369c-5.6,26.3-13.1,50.4-22,70.7
		c-11.3,25.5-22.4,39.1-29.7,46.1c-6.2,5.9-11.9,9.2-16.1,9.2c-4.1,0-9.9-3.2-16.1-9.1c-7-6.7-17.4-19.5-28.2-42.9v0l-1.5-3.3
		c-8.9-20-16.4-44.1-22-70.7H323.8 M120.9,369c7.1,38.4,17.7,73.3,31.2,102.3c-19.7-9.5-38-21.7-54.4-36.2
		c-21.2-18.7-39-41.3-52.4-66.1H120.9 M256,0c-7.3,0-16.6,3.2-27.8,13.8c-11.3,10.8-23,27.9-33.5,51.5c-11.5,26.1-20.9,58.3-27,94.7
		h176.6c-6-36.5-15.4-68.7-27-94.7c-10.5-23.6-22.2-40.7-33.5-51.5C272.6,3.2,263.3,0,256,0L256,0z M321.4,8.4
		c25.5,34.2,45.3,87.7,55.3,151.6h116.7h-0.1C463.4,85.9,399.7,29.1,321.4,8.4L321.4,8.4z M190.6,8.4c-78.4,20.7-142,77.5-172,151.6
		h116.7C145.3,96.1,165.1,42.6,190.6,8.4L190.6,8.4z M503.9,192H380.8c2.1,20.6,3.2,42,3.2,64s-1.1,43.4-3.2,64h123.1
		c5.3-20.5,8.1-41.9,8.1-64S509.2,212.5,503.9,192L503.9,192z M348.7,192H163.3c-2.1,20.4-3.3,41.8-3.3,64s1.1,43.6,3.3,64h185.4
		c2.1-20.4,3.3-41.8,3.3-64S350.9,212.4,348.7,192L348.7,192z M131.2,192H8.1C2.8,212.5,0,233.9,0,256s2.8,43.5,8.1,64h123.1
		c-2.1-20.6-3.2-42-3.2-64S129.1,212.6,131.2,192L131.2,192z M493.4,352H376.8c-10.1,63.9-29.8,117.4-55.3,151.6
		C399.8,482.9,463.4,426.1,493.4,352L493.4,352z M344.3,352H167.7c6.1,36.4,15.4,68.6,27,94.6v0.1c10.5,23.6,22.2,40.7,33.5,51.5
		c11.2,10.6,20.5,13.8,27.8,13.8c7.3,0,16.6-3.2,27.8-13.9c11.3-10.8,23-27.9,33.5-51.5C328.8,420.6,338.2,388.4,344.3,352
		L344.3,352z M135.3,352H18.6c30,74.1,93.6,130.9,172,151.6C165.1,469.4,145.3,415.9,135.3,352L135.3,352z"/>
</g>
</svg>
