<?xml version="1.0" encoding="utf-8"?>
<!-- Generator: Adobe Illustrator 27.0.0, SVG Export Plug-In . SVG Version: 6.00 Build 0)  -->
<svg version="1.1" id="Calque_1" xmlns="http://www.w3.org/2000/svg" xmlns:xlink="http://www.w3.org/1999/xlink" x="0px" y="0px"
	 viewBox="0 0 612 507.1" style="enable-background:new 0 0 612 507.1;" xml:space="preserve">
<style type="text/css">
	.st0{fill:url(#SVGID_1_);}
	.st1{fill:#87471F;}
	.st2{fill:#AED136;}
	.st3{fill:#60449B;stroke:#FFFFFF;stroke-width:3;stroke-miterlimit:10;}
	.st4{fill:url(#SVGID_00000002356319630305484990000000989575662245287593_);}
	.st5{fill:none;}
	.st6{fill:#FFFFFF;}
	.st7{font-family:'Rockwell';}
	.st8{font-size:18.7281px;}
	.st9{fill:#FCB116;stroke:#FFFFFF;stroke-width:3;stroke-miterlimit:10;}
	.st10{fill:#A4CD39;stroke:#FFFFFF;stroke-width:3;stroke-miterlimit:10;}
	.st11{fill:#039C96;stroke:#FFFFFF;stroke-width:3;stroke-miterlimit:10;}
	.st12{fill:#2161AE;stroke:#FFFFFF;stroke-width:3;stroke-miterlimit:10;}
	.st13{fill-rule:evenodd;clip-rule:evenodd;fill:#F9F8F7;}
	.st14{fill:none;stroke:#FFFFFF;stroke-width:0.81;stroke-miterlimit:10;}
	.st15{fill-rule:evenodd;clip-rule:evenodd;fill:#F9F9FA;}
	.st16{fill:#60449B;stroke:#60449B;stroke-miterlimit:10;}
	.st17{fill:none;stroke:#FFFFFF;stroke-width:3;stroke-miterlimit:10;}
	.st18{font-size:17px;}
	.st19{enable-background:new    ;}
	.st20{font-size:11.0822px;}
	.st21{font-size:17.4555px;}
	.st22{font-size:13.1897px;}
	.st23{font-size:24px;}
</style>
<linearGradient id="SVGID_1_" gradientUnits="userSpaceOnUse" x1="25" y1="446.8" x2="362.7" y2="446.8" gradientTransform="matrix(1 0 0 -1 0 535.4)">
	<stop  offset="0" style="stop-color:#B03963"/>
	<stop  offset="0.2538" style="stop-color:#BB4456"/>
	<stop  offset="0.6422" style="stop-color:#CA533F"/>
	<stop  offset="1" style="stop-color:#D25B31"/>
</linearGradient>
<polygon class="st0" points="362.5,152.2 25,152.2 25,25 323.8,25 362.7,25.1 362.5,52.2 "/>
<g>
	<path class="st1" d="M100.2,262.8c0.3-2,0.9-3.7,1.9-4.9c1.4-1.8,3.3-2.6,5.5-2.3c1.2,0.3,2.4,0.7,3.4,1.2c0.2,0.1,0.4,0.2,0.6,0.4
		l1.9,1.4l33.9,26.8l-7.5,9.5l10.9,40.9l-54.1-48.1L100.2,262.8z"/>
	<path class="st1" d="M94.2,286.1L91,309.3l16.5,2.3L70,339.9l-28.3-37.5l16.5,2.3l4.1-29.5c0.5-3.6,3.7-7.7,7.1-9.1l28.9-11.7
		c1.1-0.5,2.5-0.7,3.9-0.7l0.2,0.5c-1.1,0.4-2.1,1.1-2.9,2.1c-0.9,1.2-1.6,2.8-1.8,4.9L94.2,286.1z"/>
</g>
<polygon class="st2" points="363.4,64.5 381.6,84.9 362.7,103.5 "/>
<path class="st3" d="M496.2,122l28.3-27.5l0,0C480.6,49.2,422.5,25.9,364,25l-2,127.1c26,0.4,51.7,10.7,71.2,30.8l0,0l35-33.9
	l26.5,0.2L496.2,122z"/>
<linearGradient id="SVGID_00000081633262249794843290000002079552172246098361_" gradientUnits="userSpaceOnUse" x1="256.6353" y1="510.4292" x2="256.6353" y2="122.8" gradientTransform="matrix(1 0 0 -1 0 535.4)">
	<stop  offset="0" style="stop-color:#CA543E"/>
	<stop  offset="0.6172" style="stop-color:#F57F20"/>
	<stop  offset="1" style="stop-color:#FCB116"/>
</linearGradient>
<path style="fill:url(#SVGID_00000081633262249794843290000002079552172246098361_);" d="M153.2,156.8
	c-13.7,29.4-20.9,61.2-21.4,93.1c-1,63.1,23.7,120.6,64.4,162.7l91.3-88.5c-18.1-18.6-29-44.2-28.6-72.2l0,0
	c0.4-25.9,10.7-51.7,30.8-71.2c18.6-18.1,44.2-29,72.2-28.6l0,0l0.8-48.7l18.8-18.6l-18.2-20.3l0.6-39.5l0,0
	c-63.1-1-120.6,23.7-162.7,64.4C180.7,109.4,164.7,132.3,153.2,156.8"/>
<rect x="207" y="249.3" class="st5" width="305.5" height="34.9"/>
<rect x="-78.2" y="346.8" class="st5" width="305.5" height="34.9"/>
<g>
	<path class="st6" d="M154.9,90.7l-6.3-10h4.3h0.1l-5.2-11h3.7l-7.4-10.5l-5.4,7.8l-6.1-12.3h5.7l-11.1-15.3L116,54.7h5l-7.9,15h0.3
		h6.3l-9.5,19h13.1v13h6v-13h5.7l-2,2h7.3v11h6v-11H154.9z M139.8,69.7l-2.8,5.9l-3-5.9H139.8z M139,79.6h0.2l-0.1,0.2L139,79.6z"/>
</g>
<g>
	<g>
		<path class="st6" d="M75.6,86.3L75.6,86.3L65,67.9L54.4,86.3l0,0C53.5,88,53,89.9,53,91.9c0,6.6,5.4,12,12,12s12-5.4,12-12
			C77,89.9,76.5,88,75.6,86.3z M64.8,101.2c-4.8,0-8.8-3.9-8.8-8.8c0-0.7,0.6-1.3,1.3-1.3s1.3,0.6,1.3,1.3c0,3.4,2.8,6.2,6.2,6.2
			c0.7,0,1.3,0.6,1.3,1.3S65.5,101.2,64.8,101.2z"/>
		<path class="st6" d="M85.6,76.1L85.6,76.1l-5.1-8.8l-5.1,8.8l0,0c-0.4,0.8-0.7,1.7-0.7,2.7c0,3.2,2.6,5.7,5.7,5.7
			c3.2,0,5.7-2.6,5.7-5.7C86.2,77.8,86,76.9,85.6,76.1z M80.4,83.2c-2.3,0-4.2-1.9-4.2-4.2c0-0.3,0.3-0.6,0.6-0.6
			c0.3,0,0.6,0.3,0.6,0.6c0,1.6,1.3,3,3,3c0.3,0,0.6,0.3,0.6,0.6S80.7,83.2,80.4,83.2z"/>
	</g>
</g>
<g>
	<g>
		<path class="st6" d="M44.9,38.9c0,0.9,0.7,1.6,1.6,1.6c0.9,0,1.6-0.7,1.6-1.6s-1.6-2.6-1.6-2.6S44.9,38,44.9,38.9z"/>
		<g>
			<path class="st6" d="M47.4,41.2c-0.8,0.8-0.8,2,0,2.7c0.8,0.8,2,0.8,2.7,0c0.8-0.8,0.8-3.5,0.8-3.5S48.2,40.4,47.4,41.2z"/>
			<path class="st6" d="M47.3,45.4c-0.7,0.7-0.7,1.8,0,2.4c0.7,0.7,1.8,0.7,2.4,0c0.7-0.7,0.7-3.2,0.7-3.2S48,44.7,47.3,45.4z"/>
			<path class="st6" d="M47.3,49.6c-0.6,0.6-0.6,1.6,0,2.3c0.6,0.6,1.6,0.6,2.3,0c0.6-0.6,0.7-3,0.7-3S47.9,49,47.3,49.6z"/>
		</g>
		<g>
			<path class="st6" d="M45.5,41.2c0.8,0.8,0.8,2,0,2.7c-0.8,0.8-2,0.8-2.7,0C42,43.1,42,40.4,42,40.4S44.8,40.4,45.5,41.2z"/>
			<path class="st6" d="M45.6,45.4c0.7,0.7,0.7,1.8,0,2.4c-0.7,0.7-1.8,0.7-2.4,0c-0.7-0.7-0.7-3.2-0.7-3.2S44.9,44.7,45.6,45.4z"/>
			<path class="st6" d="M45.6,49.6c0.6,0.6,0.6,1.6,0,2.3c-0.6,0.6-1.6,0.6-2.3,0c-0.6-0.6-0.7-3-0.7-3S45,49,45.6,49.6z"/>
		</g>
		<polygon class="st6" points="47.2,58.7 45.7,58.7 46.1,54.7 46.8,54.7 		"/>
	</g>
	<g>
		<path class="st6" d="M55.7,38.9c0,0.9,0.7,1.6,1.6,1.6c0.9,0,1.6-0.7,1.6-1.6s-1.6-2.6-1.6-2.6S55.7,38,55.7,38.9z"/>
		<g>
			<path class="st6" d="M58.3,41.2c-0.8,0.8-0.8,2,0,2.7c0.8,0.8,2,0.8,2.7,0c0.8-0.8,0.8-3.5,0.8-3.5S59,40.4,58.3,41.2z"/>
			<path class="st6" d="M58.2,45.4c-0.7,0.7-0.7,1.8,0,2.4c0.7,0.7,1.8,0.7,2.4,0c0.7-0.7,0.7-3.2,0.7-3.2S58.9,44.7,58.2,45.4z"/>
			<path class="st6" d="M58.2,49.6c-0.6,0.6-0.6,1.6,0,2.3c0.6,0.6,1.6,0.6,2.3,0c0.6-0.6,0.7-3,0.7-3S58.8,49,58.2,49.6z"/>
		</g>
		<g>
			<path class="st6" d="M56.4,41.2c0.8,0.8,0.8,2,0,2.7c-0.8,0.8-2,0.8-2.7,0c-0.8-0.8-0.8-3.5-0.8-3.5S55.6,40.4,56.4,41.2z"/>
			<path class="st6" d="M56.4,45.4c0.7,0.7,0.7,1.8,0,2.4c-0.7,0.7-1.8,0.7-2.4,0c-0.7-0.6-0.8-3.1-0.8-3.1S55.7,44.7,56.4,45.4z"/>
			<path class="st6" d="M56.5,49.6c0.6,0.6,0.6,1.6,0,2.3c-0.6,0.6-1.6,0.6-2.3,0c-0.6-0.6-0.7-3-0.7-3S55.8,49,56.5,49.6z"/>
		</g>
		<polygon class="st6" points="58.1,58.7 56.6,58.7 57,54.7 57.7,54.7 		"/>
	</g>
	<g>
		<path class="st6" d="M66.6,38.9c0,0.9,0.7,1.6,1.6,1.6c0.9,0,1.6-0.7,1.6-1.6s-1.6-2.6-1.6-2.6S66.6,38,66.6,38.9z"/>
		<g>
			<path class="st6" d="M69.1,41.2c-0.8,0.8-0.8,2,0,2.7c0.8,0.8,2,0.8,2.7,0c0.8-0.8,0.8-3.5,0.8-3.5S69.9,40.4,69.1,41.2z"/>
			<path class="st6" d="M69.1,45.4c-0.7,0.7-0.7,1.8,0,2.4c0.7,0.7,1.8,0.7,2.4,0c0.7-0.7,0.7-3.2,0.7-3.2S69.7,44.7,69.1,45.4z"/>
			<path class="st6" d="M69,49.6c-0.6,0.6-0.6,1.6,0,2.3c0.6,0.6,1.6,0.6,2.3,0c0.6-0.6,0.7-3,0.7-3S69.6,49,69,49.6z"/>
		</g>
		<g>
			<path class="st6" d="M67.2,41.2c0.8,0.8,0.8,2,0,2.7c-0.8,0.8-2,0.8-2.7,0c-0.8-0.8-0.8-3.5-0.8-3.5S66.5,40.4,67.2,41.2z"/>
			<path class="st6" d="M67.3,45.4c0.7,0.7,0.7,1.8,0,2.4c-0.7,0.7-1.8,0.7-2.4,0c-0.7-0.7-0.7-3.2-0.7-3.2S66.6,44.7,67.3,45.4z"/>
			<path class="st6" d="M67.3,49.6c0.6,0.6,0.6,1.6,0,2.3c-0.6,0.6-1.6,0.6-2.3,0c-0.6-0.6-0.7-3-0.7-3S66.7,49,67.3,49.6z"/>
		</g>
		<polygon class="st6" points="69,58.7 67.4,58.7 67.8,54.7 68.5,54.7 		"/>
	</g>
	<g>
		<path class="st6" d="M77.4,38.9c0,0.9,0.7,1.6,1.6,1.6s1.6-0.7,1.6-1.6S79,36.3,79,36.3S77.4,38,77.4,38.9z"/>
		<g>
			<path class="st6" d="M80,41.2c-0.8,0.8-0.8,2,0,2.7c0.8,0.8,2,0.8,2.7,0c0.8-0.8,0.8-3.5,0.8-3.5S80.7,40.4,80,41.2z"/>
			<path class="st6" d="M79.9,45.4c-0.7,0.7-0.7,1.8,0,2.4c0.7,0.7,1.8,0.7,2.4,0c0.7-0.7,0.7-3.2,0.7-3.2S80.6,44.7,79.9,45.4z"/>
			<path class="st6" d="M79.9,49.6c-0.6,0.6-0.6,1.6,0,2.3c0.6,0.6,1.6,0.6,2.3,0c0.6-0.6,0.7-3,0.7-3S80.5,49,79.9,49.6z"/>
		</g>
		<g>
			<path class="st6" d="M78.1,41.2c0.8,0.8,0.8,2,0,2.7c-0.8,0.8-2,0.8-2.7,0c-0.8-0.8-0.8-3.5-0.8-3.5S77.3,40.4,78.1,41.2z"/>
			<path class="st6" d="M78.1,45.4c0.7,0.7,0.7,1.8,0,2.4c-0.7,0.7-1.8,0.7-2.4,0C75,47.1,75,44.6,75,44.6S77.5,44.7,78.1,45.4z"/>
			<path class="st6" d="M78.2,49.6c0.6,0.6,0.6,1.6,0,2.3c-0.6,0.6-1.6,0.6-2.3,0c-0.6-0.6-0.7-3-0.7-3S77.5,49,78.2,49.6z"/>
		</g>
		<polygon class="st6" points="79.8,58.7 78.3,58.7 78.7,54.7 79.4,54.7 		"/>
	</g>
	<g>
		<path class="st6" d="M88.3,38.9c0,0.9,0.7,1.6,1.6,1.6s1.6-0.7,1.6-1.6s-1.6-2.6-1.6-2.6S88.3,38,88.3,38.9z"/>
		<g>
			<path class="st6" d="M90.8,41.2c-0.8,0.8-0.8,2,0,2.7c0.8,0.8,2,0.8,2.7,0c0.8-0.8,0.8-3.5,0.8-3.5S91.6,40.4,90.8,41.2z"/>
			<path class="st6" d="M90.8,45.4c-0.7,0.7-0.7,1.8,0,2.4c0.7,0.7,1.8,0.7,2.4,0c0.7-0.7,0.7-3.2,0.7-3.2S91.4,44.7,90.8,45.4z"/>
			<path class="st6" d="M90.7,49.6c-0.6,0.6-0.6,1.6,0,2.3c0.6,0.6,1.6,0.6,2.3,0c0.6-0.6,0.7-3,0.7-3S91.4,49,90.7,49.6z"/>
		</g>
		<g>
			<path class="st6" d="M88.9,41.2c0.8,0.8,0.8,2,0,2.7c-0.8,0.8-2,0.8-2.7,0c-0.8-0.8-0.8-3.5-0.8-3.5S88.2,40.4,88.9,41.2z"/>
			<path class="st6" d="M89,45.4c0.7,0.7,0.7,1.8,0,2.4c-0.7,0.7-1.8,0.7-2.4,0c-0.7-0.7-0.7-3.2-0.7-3.2S88.3,44.7,89,45.4z"/>
			<path class="st6" d="M89,49.6c0.6,0.6,0.6,1.6,0,2.3c-0.6,0.6-1.6,0.6-2.3,0c-0.6-0.6-0.7-3-0.7-3S88.4,49,89,49.6z"/>
		</g>
		<polygon class="st6" points="90.7,58.7 89.1,58.7 89.6,54.7 90.3,54.7 		"/>
	</g>
	<g>
		<path class="st6" d="M99.2,38.9c0,0.9,0.7,1.6,1.6,1.6s1.6-0.7,1.6-1.6s-1.6-2.6-1.6-2.6S99.2,38,99.2,38.9z"/>
		<g>
			<path class="st6" d="M101.7,41.2c-0.8,0.8-0.8,2,0,2.7c0.8,0.8,2,0.8,2.7,0c0.8-0.8,0.8-3.5,0.8-3.5S102.4,40.4,101.7,41.2z"/>
			<path class="st6" d="M101.6,45.4c-0.7,0.7-0.7,1.8,0,2.4c0.7,0.7,1.8,0.7,2.4,0c0.7-0.7,0.7-3.2,0.7-3.2S102.3,44.7,101.6,45.4z"
				/>
			<path class="st6" d="M101.6,49.6c-0.6,0.6-0.6,1.6,0,2.3c0.6,0.6,1.6,0.6,2.3,0c0.6-0.6,0.7-3,0.7-3S102.2,49,101.6,49.6z"/>
		</g>
		<g>
			<path class="st6" d="M99.8,41.2c0.8,0.8,0.8,2,0,2.7c-0.8,0.8-2,0.8-2.7,0c-0.8-0.8-0.8-3.5-0.8-3.5S99,40.4,99.8,41.2z"/>
			<path class="st6" d="M99.8,45.4c0.7,0.7,0.7,1.8,0,2.4c-0.7,0.7-1.8,0.7-2.4,0c-0.7-0.7-0.7-3.2-0.7-3.2S99.2,44.7,99.8,45.4z"/>
			<path class="st6" d="M99.9,49.6c0.6,0.6,0.6,1.6,0,2.3c-0.6,0.6-1.6,0.6-2.3,0c-0.6-0.6-0.7-3-0.7-3S99.3,49,99.9,49.6z"/>
		</g>
		<polygon class="st6" points="101.5,58.7 100,58.7 100.4,54.7 101.1,54.7 		"/>
	</g>
</g>
<text transform="matrix(1 0 0 1 156.8734 252.3223)" class="st6 st7 st8">recyclage</text>
<text transform="matrix(1 0 0 1 41.2682 129.2732)" class="st6 st7 st8">grondstoffen</text>
<g>
	<path class="st6" d="M180.7,221.7c-0.4,0.6-0.5,1.2-0.5,1.7c0,0.8,0.3,1.4,1,1.8c0.4,0.2,0.8,0.3,1.2,0.4c0.1,0,0.2,0,0.2,0h0.8h15
		v-4.2v-7.3h-13.3L180.7,221.7z"/>
	<path class="st6" d="M219.9,181.7l-5,2.9l-5.1-8.9c-0.6-1.1-2.2-2-3.4-2h-10.8c-0.4,0-0.9,0.1-1.3,0.3v0.2c0.4,0,0.8,0.1,1.2,0.3
		c0.4,0.3,0.9,0.7,1.2,1.3l4.3,7.6l4,7l-5,2.9l15.7,4.3L219.9,181.7z"/>
	<path class="st6" d="M193.4,195.2l6.7-11.5l-4.3-7.6c-0.4-0.6-0.8-1.1-1.2-1.3c-0.7-0.4-1.4-0.4-2.1,0c-0.4,0.2-0.7,0.5-0.9,0.8
		c0,0.1-0.1,0.1-0.1,0.2l-0.4,0.7l-7.5,12.9l3.6,2.1L193.4,195.2z"/>
	<path class="st6" d="M212.8,201.9l6.9,11.8h9c0.7,0,1.3-0.2,1.8-0.4c0.7-0.4,1.1-1,1.1-1.8c0-0.4-0.1-0.9-0.3-1.3
		c0-0.1-0.1-0.1-0.1-0.2l-0.4-0.7L223,196l-3.7,2.2L212.8,201.9z"/>
	<path class="st6" d="M231.7,213.4c-0.2,0.4-0.5,0.7-0.9,0.9c-0.5,0.3-1.1,0.4-1.8,0.4h-8.7h-8.1v-5.8l-11.5,11.5l11.5,11.5v-5.8
		h10.3c1.3,0,2.8-0.9,3.5-2l5.4-9.3C231.6,214.4,231.8,214,231.7,213.4L231.7,213.4z"/>
	<path class="st6" d="M184.1,214.1l4.1-7l5,2.9l-4.2-15.7l-15.7,4.2l5,2.9l-5.2,8.9c-0.6,1.1-0.6,2.9,0,4l5.4,9.4
		c0.2,0.4,0.5,0.7,0.9,1l0.2-0.1c-0.2-0.3-0.3-0.7-0.3-1.2s0.2-1.1,0.5-1.7L184.1,214.1z"/>
</g>
<path class="st9" d="M356.7,482.1l2-127.1c-26-0.4-51.7-10.7-71.2-30.8l-35,33.9l-27.3,0.6l-0.7,26.4l-28.4,27.5
	C240.1,457.9,298.2,481.2,356.7,482.1z"/>
<path class="st10" d="M519.4,417.8l-88.5-91.3c-18.6,18.1-44.2,29-72.2,28.6l-0.8,48.7l-18.8,19.8l18.2,19.2l-0.6,39.5
	C419.8,483.1,477.4,458.4,519.4,417.8z"/>
<path class="st11" d="M588.9,257.2l-127.1-2c-0.4,26-10.7,51.7-30.8,71.2l33.9,35l0.6,27.3l26.4,0.7l27.5,28.4
	C564.7,373.8,587.9,315.7,588.9,257.2z"/>
<path class="st12" d="M524.5,94.6l-91.3,88.5c18.1,18.6,29,44.2,28.6,72.2l48.7,0.8l19.8,18.8l19.2-18.2l39.5,0.6
	C589.9,194.1,565.2,136.6,524.5,94.6z"/>
<g>
	<g>
		<g>
			<path class="st6" d="M418.6,392.3l-2.9-2.9l-4,4c-2.7-1.5-6.1-1.1-8.4,1.2c-1.3,1.3-2,2.9-2.1,4.6l1.4-1.4c1.1-1.1,2.8-1.1,3.9,0
				l3.7,3.7c1.1,1.1,1.1,2.8,0,3.9l-1.4,1.4c1.7-0.1,3.3-0.8,4.6-2.1c2.3-2.3,2.7-5.7,1.2-8.4L418.6,392.3z"/>
			<path class="st6" d="M420.2,385l2.9,2.9l4-4c2.7,1.5,6.1,1.1,8.4-1.2c1.3-1.3,2-2.9,2.1-4.6l-1.4,1.4c-1.1,1.1-2.8,1.1-3.9,0
				l-3.7-3.7c-1.1-1.1-1.1-2.8,0-3.9l1.4-1.4c-1.7,0.1-3.3,0.8-4.6,2.1c-2.3,2.3-2.7,5.7-1.2,8.4L420.2,385z"/>
		</g>
		<g>
			<path class="st6" d="M413.7,372.5c0.7,0,1.4,0.3,1.9,0.8l1,1c1.1,1.1,1.1,2.8,0,3.9l-2.4,2.4l20.3,20.3c1.1,1.1,1.5,2.5,0.9,3.2
				l-0.5,0.5c-0.2,0.2-0.5,0.3-0.8,0.3c-0.7,0-1.6-0.4-2.3-1.2l-20.5-20.3l-2.4,2.4c-0.5,0.5-1.2,0.8-1.9,0.8s-1.4-0.3-1.9-0.8l-1-1
				c-1.1-1.1-1.1-2.8,0-3.9l2.5-2.5c-0.8-1-1-2.1-0.4-2.7l0.5-0.5c0.2-0.2,0.5-0.3,0.8-0.3c0.6,0,1.2,0.3,1.9,0.7l2.5-2.5
				C412.3,372.7,413,372.5,413.7,372.5 M413.7,371.5c-1,0-1.9,0.4-2.6,1.1l-1.9,1.9c-0.6-0.3-1.2-0.5-1.7-0.5
				c-0.6,0-1.2,0.2-1.5,0.6l-0.5,0.5c-0.8,0.8-0.8,2-0.1,3.3l-1.9,1.9c-0.7,0.7-1.1,1.6-1.1,2.6s0.4,1.9,1.1,2.6l1,1
				c0.7,0.7,1.6,1.1,2.6,1.1s1.9-0.4,2.6-1.1l1.7-1.7l19.5,19.5c0.9,0.9,2.1,1.5,3.1,1.5c0.6,0,1.2-0.2,1.5-0.6l0.5-0.5
				c0.6-0.6,0.7-1.4,0.5-2.4c-0.2-0.8-0.7-1.6-1.3-2.2l-19.5-19.5l1.7-1.7c0.7-0.7,1.1-1.6,1.1-2.6s-0.4-1.9-1.1-2.6l-1-1
				C415.6,371.9,414.7,371.5,413.7,371.5L413.7,371.5z"/>
		</g>
	</g>
</g>
<g>
	<circle class="st6" cx="504.7" cy="328.9" r="4.2"/>
	<circle class="st6" cx="523" cy="328.9" r="4.2"/>
	<path class="st6" d="M533.7,301.7c-5.4,0-25.9,0-25.9,0s-1.5,0.3-1.5,2s1.5,2.2,1.5,2.2H531l-1.3,4.4c-6.4,0-22.8,0-22.8,0
		s-1.4,0.3-1.4,1.9s1.4,2,1.4,2h21.6l0,0l-1.2,4.1h-23.5l-1.6-12.5l-0.5-4.2c0,0-0.5-3.9-0.7-5.5c-0.3-1.6-4.3-3.6-12.9-7.7
		c-2-0.9-3.7,2.9,0,4.8l6.8,3.2c0,0,1.6,0.9,1.7,2.2c0.1,1.2,2.9,21.8,2.9,21.8s0.1,2.9,2.7,2.9s23.8,0,26,0s2.6-2.3,2.6-2.3
		l5.2-15.3C536,305.7,537.5,301.7,533.7,301.7z"/>
</g>
<path class="st13" d="M527.3,176.8v-8.9l-7,8.9v-8.9l-10,8.9v-8.9l-9,10.6v18.2h9.2h1.6h6.7h1.6h6.7h1.6h6.7v-28.8L527.3,176.8z
	 M511.3,191.7h-5v-8h5V191.7z M521.3,191.7h-6v-8h6V191.7z M530.3,191.7h-6v-8h6V191.7z"/>
<g>
	<g id="IgFtpd_1_">
		<g>
			<path class="st14" d="M448.3,104.8c0.1,0.6,0.1,1.1,0.2,1.7c0.1,0.7,0.2,1.3,0.4,2c0,0.2,0.1,0.3,0.1,0.5
				c0.2,1.9-0.2,2.1-1.7,2.2c-2.4,0.2-4.7-0.2-7-0.7c-0.5-0.1-0.9-0.2-1.4-0.3c-0.8-0.2-1.4,0-1.8,0.8s-0.7,1.6-0.9,2.5
				c-0.3,1.2-0.5,2.5-0.7,3.8c1,0,1.9,0,2.9,0c0.3-1.3,0.5-2.7,0.8-4.1c1.2,0.2,2.4,0.4,3.5,0.6c1.8,0.2,3.6,0.4,5.4,0.2
				c3.1-0.4,4.1-2.5,3.8-5.1c-0.2-1.5-0.5-3-0.6-4.5c-0.2-1.5,0.4-2.9,0.9-4.2c0.1-0.1,0.3-0.3,0.5-0.3c0.8-0.2,1.6-0.4,2.5-0.5
				c2.3-0.4,3.1-2.8,1.6-4.6c-1.4-1.7-2.8-3.4-4.3-5c-0.6-0.7-0.8-1.4-0.9-2.3c-0.2-1.4,0.1-2.8,0.3-4.2c0.4-3.9-0.3-7.6-2.9-10.7
				c-1.2-1.4-2.7-2.4-4.4-3.3c-4.2-2.2-8.7-3.3-13.5-3.2c-4.7,0.1-9.2,1.2-13.2,3.7c-4.9,3-7.9,7.4-8.6,13.2c-0.6,5,0.5,9.8,3,14.2
				c1.7,3,3.1,6.1,3.8,9.4c0.3,1.2,0.2,2.6,0.1,3.8c-0.2,2.3-0.5,4.5-0.7,6.7c0,0.1,0,0.1,0,0.2c0.9,0,1.9,0,2.8,0
				c0.1-0.8,0.3-1.6,0.3-2.4c0.3-2.5,0.7-5.1,0.4-7.6c-0.2-1.6-0.7-3.2-1.2-4.8c-0.8-2.4-1.9-4.6-3.2-6.8c-1.3-2.1-2.1-4.5-2.5-7
				c-0.5-2.8-0.4-5.7,0.5-8.4c1-2.9,2.8-5.2,5.1-7.1c2.6-2.1,5.7-3.1,8.9-3.8c6.5-1.4,12.5-0.1,18.1,3.3c2.4,1.5,3.6,3.8,4,6.5
				c0.3,1.8,0.1,3.6-0.1,5.4c-0.3,1.8-0.1,3.7,0.5,5.4c0.1,0.3,0.3,0.6,0.6,0.9c1.5,1.7,2.9,3.4,4.4,5.2c0.1,0.1,0.2,0.3,0.3,0.4
				c-1.1,0.2-2.1,0.5-3.1,0.6c-0.8,0.1-1.3,0.5-1.5,1.2c-0.4,1.1-0.8,2.1-1.2,3.2c-0.1,0.3-0.2,0.4-0.6,0.4c-1,0-2,0-3,0.1
				c-0.7,0.1-1.1,0.6-1.2,1.3c0,0.6,0.4,1.2,1,1.4c0.2,0.1,0.5,0.1,0.8,0.1C446.6,104.8,447.4,104.8,448.3,104.8z"/>
		</g>
	</g>
	<g>
		<path class="st15" d="M416.3,91.4c-1-0.1-1.2-0.6-1.1-1.5c0-0.2,0-0.3,0-0.5c-0.1-0.7,0.1-1.1,0.9-1.2c1.1-0.2,1.8-1.9,1.2-2.9
			c-0.1-0.2-0.4-0.6-0.3-0.8c0.5-0.6,1-1.2,1.6-1.7c0.2-0.1,0.7,0.2,1.1,0.3c0.8,0.4,2.5-0.3,2.7-1.2c0.1-0.9,0.5-1.2,1.4-1.1
			c0.3,0,0.6,0,0.9,0c0.6-0.1,0.8,0.2,1,0.7c0.1,0.3,0.2,0.9,0.4,1c0.9,0.3,1.8,1.2,2.8,0.3c0.1-0.1,0.4-0.2,0.5-0.1
			c0.6,0.5,1.2,1,1.7,1.6c0.1,0.2-0.1,0.7-0.3,1.1c-0.4,0.8,0.3,2.6,1.1,2.7c1,0.1,1.3,0.6,1.1,1.5c0,0.3,0,0.5,0,0.8
			c0.1,0.5-0.1,0.8-0.6,0.9c-1.4,0.4-2.1,1.8-1.4,3.1c0.3,0.5,0.3,0.8-0.2,1.2c-0.2,0.2-0.5,0.4-0.7,0.7c-0.5,0.6-0.9,0.6-1.5,0.2
			c-0.9-0.6-2.6,0.2-2.9,1.2c-0.1,0.3-0.2,0.7-0.3,0.7c-0.8,0.1-1.6,0.2-2.3,0.1c-0.2,0-0.4-0.6-0.5-1c-0.3-0.9-1.9-1.6-2.7-1.1
			c-0.8,0.6-1.4,0.4-1.9-0.3c-0.1-0.2-0.3-0.3-0.5-0.5c-0.4-0.4-0.5-0.7-0.2-1.2c0.5-0.7,0.2-2.2-0.4-2.8
			C416.6,91.5,416.5,91.4,416.3,91.4z M427.5,93.2c2-2,1.9-4.9-0.1-7c-2-2-4.8-2-6.8-0.2c-2.2,2-2.2,5-0.1,7
			C422.6,95.3,425.4,95.3,427.5,93.2z"/>
		<path class="st15" d="M443.2,77.2c0,0.3-0.6,0.6-1,0.8c-1.4,0.8-1.7,2-0.9,3.4c0.2,0.3,0.6,0.9,0.4,1.1c-0.4,0.6-1,1.2-1.6,1.7
			c-0.2,0.2-0.9-0.2-1.3-0.5c-1.2-0.7-2.5-0.4-3.2,0.8c-0.7,1.3-0.7,1.3-2.2,0.9c-0.1,0-0.1,0-0.2,0c-0.9,0-1.1-0.6-1-1.4
			c0.1-1.8-0.7-2.7-2.5-2.6c-0.9,0.1-1.4-0.2-1.5-1.1c0-0.1,0-0.2-0.1-0.3c-0.4-0.9-0.1-1.3,0.7-1.7c1.6-0.8,1.9-2,0.9-3.5
			c-0.4-0.7-0.5-1.1,0.2-1.7c1.2-1.1,1.2-1.2,2.6-0.3c0.9,0.5,2.3,0.1,2.8-0.8c1-1.7,0.5-1.4,2.4-1c0.9,0.2,1.1,0.6,1,1.4
			c-0.1,0.9,0.1,1.5,0.7,2.2c0.6,0.5,1.2,0.4,1.9,0.4c0.4,0,0.7,0,1.1,0C442.8,75.7,443.1,76.5,443.2,77.2z M437.8,75.9
			c-1.3-1.3-3.2-1.3-4.4,0c-1.2,1.3-1.2,3.1,0.1,4.4c1.3,1.3,3,1.3,4.3,0C439.1,79,439.1,77.2,437.8,75.9z"/>
		<path class="st15" d="M422.3,88.1c-1,1-1,2.3,0,3.3c0.9,1,2.4,0.9,3.4,0c1-1,0.9-2.3-0.1-3.3S423.3,87.1,422.3,88.1z"/>
	</g>
</g>
<polyline class="st3" points="468.1,148.8 494.5,149 496.1,121.7 "/>
<polyline class="st16" points="443.2,146.4 493.4,148.2 494.9,110.7 "/>
<g>
	<path class="st6" d="M305.4,377.5h-31.1c-3.3,0-5.6,3.1-5.1,6.7l4.4,33.3c0.3,2.2,2.5,3.9,4.9,3.9h22.8c2.4,0,4.6-1.7,4.9-3.9
		l4.4-33.3C311,380.6,308.7,377.5,305.4,377.5z M302.4,400.8l0.2,0.3v0.1c0.1,0.2,0.1,0.4,0.1,0.5c0,0.3-0.2,0.6-0.5,0.8
		c-0.2,0.1-0.5,0.2-0.8,0.2h-3.9l-3-5.1l2.8-1.7l1.6-1L302.4,400.8z M285,386.5l0.2-0.3c0,0,0-0.1,0.1-0.1c0.1-0.1,0.3-0.3,0.4-0.4
		c0.3-0.2,0.6-0.2,0.9,0c0.2,0.1,0.4,0.3,0.5,0.6l1.9,3.3l-2.9,5l-2.8-1.6l-1.6-0.9L285,386.5z M279.9,407.5L279.9,407.5
		c-0.2-0.1-0.4-0.2-0.5-0.4l-2.3-4.1c-0.3-0.5-0.3-1.3,0-1.7l2.3-3.9l-2.2-1.3l6.9-1.8l1.8,6.9l-2.2-1.3l-1.8,3.1l-1.9,3.3
		c-0.2,0.3-0.2,0.5-0.2,0.8C279.8,407.2,279.8,407.4,279.9,407.5z M288.2,406.2v1.8h-6.5h-0.4h-0.1c-0.2,0-0.3-0.1-0.5-0.2
		c-0.3-0.2-0.4-0.5-0.4-0.8c0-0.2,0.1-0.5,0.2-0.8l1.9-3.3h5.8V406.2z M291,392.5l-1.8-3.1l-1.9-3.3c-0.2-0.3-0.3-0.5-0.5-0.6
		s-0.3-0.1-0.5-0.1v-0.1c0.2-0.1,0.4-0.1,0.6-0.1h4.7c0.6,0,1.2,0.4,1.5,0.9l2.2,3.9l2.2-1.2l-1.9,6.9l-6.9-1.9L291,392.5z
		 M302.6,403.3l-2.4,4.1c-0.3,0.5-1,0.9-1.5,0.9h-4.5v2.5l-5-5l5-5v2.5h3.5h3.8c0.3,0,0.6-0.1,0.8-0.2c0.2-0.1,0.3-0.2,0.4-0.4h0.1
		C302.8,402.9,302.7,403.1,302.6,403.3z"/>
	<path class="st6" d="M271.4,376.4h37c1.1,0,2-0.8,2-1.8s-0.9-1.8-2-1.8h-14c-0.1-1.1-1.1-1.9-2.4-1.9h-4.3c-1.3,0-2.3,0.8-2.4,1.9
		h-14c-1.1,0-2,0.8-2,1.8C269.4,375.6,270.3,376.4,271.4,376.4z"/>
</g>
<polyline class="st17" points="362,152.2 363.1,104.6 382,86 363.8,65.7 364.4,23.2 "/>
<path class="st17" d="M362,153.7L362,153.7l0.8-48.7l18.8-18.6l-18.2-20.3l0.6-39.5l0.3-7.4"/>
<path class="st17" d="M288.5,324.1c-17.9-18.6-28.7-44.2-28.2-72.2l0,0c0.4-25.9,10.6-51.7,30.5-71.2c18.4-18.1,43.7-29,71.4-28.6"
	/>
<text transform="matrix(1 0 0 1 243.2004 439.2724)" class="st6 st7 st18">verzamelen</text>
<text transform="matrix(1 0 0 1 358.6008 422.2248)" class="st19"><tspan x="0" y="0" class="st6 st7 st20">consumeren, gebruiken,</tspan><tspan x="5.1" y="13.3" class="st6 st7 st20">herbruiken, repareren</tspan></text>
<text transform="matrix(1 0 0 1 470.9414 350.4903)" class="st6 st7 st21">distributie</text>
<text transform="matrix(1 0 0 1 486.8068 213.3148)" class="st19"><tspan x="0" y="0" class="st6 st7 st22">productie,</tspan><tspan x="-8.4" y="15.8" class="st6 st7 st22">herproductie</tspan></text>
<text transform="matrix(1 0 0 1 383.2247 137.6612)" class="st6 st7 st8">ontwerpen</text>
<text transform="matrix(1 0 0 1 22.5505 369.406)" class="st1 st7 st23">restafval</text>
</svg>
