<?xml version="1.0" encoding="utf-8"?>
<!-- Generator: Adobe Illustrator 26.3.1, SVG Export Plug-In . SVG Version: 6.00 Build 0)  -->
<svg version="1.1" id="Layer_1" xmlns="http://www.w3.org/2000/svg" xmlns:xlink="http://www.w3.org/1999/xlink" x="0px" y="0px"
	 viewBox="0 0 341.8 387.6" style="enable-background:new 0 0 341.8 387.6;" xml:space="preserve">
<style type="text/css">
	.st0{fill:#0170BA;}
	.st1{fill:#29A9DF;}
	.st2{fill:#CFCFCF;}
	.st3{fill:#FFFFFF;}
</style>
<g id="_x23_000000ff">
	<path d="M68.4-91.5c21-0.3,42-0.1,63-0.1c0.1,6.6,0.2,13.1-0.1,19.7c-14.5-0.1-29.1,0-43.6,0.1c-0.1,9.5-0.3,19.1-0.2,28.6
		c14.6,0.1,29.2,0.2,43.8,0.2c0.2,5.4,0.1,10.8,0,16.2c-20.9-0.1-41.9-0.1-62.8-0.1C68.4-48.4,68.5-69.9,68.4-91.5z"/>
	<path d="M138.9-91.6c21.3,0,42.5-0.2,63.8,0.1c-0.1,6.2,0,12.4,0,18.6c-15.5,0-31,0-46.4,0.2c0,2.4,0,4.9,0,7.3
		c15.4,0.2,30.9,0.3,46.3,0.4c0.1,12.7,0,25.5,0.1,38.2c-21.3,0-42.5,0-63.8,0.1c-0.1-5.1-0.1-10.3,0-15.4c14.7,0,29.5,0.1,44.2-0.1
		c0.1-3.3,0.1-6.6,0.1-9.9c-14.8,0-29.6,0-44.4-0.1C138.8-65.3,138.8-78.4,138.9-91.6z"/>
	<path d="M209.8-91.4c21.2,0,42.4,0,63.7,0c0.1,6.2,0.2,12.5,0,18.7c-15.5,0-31.1,0.1-46.6,0.1c0,2.6,0.1,5.1,0.2,7.7
		c15.4-0.1,30.9,0.1,46.3,0.3c0.1,12.7,0.2,25.3,0.1,38c-21.3-0.1-42.5-0.1-63.8,0c-0.1-5.1-0.2-10.3,0.1-15.4
		c14.7,0.1,29.4,0.1,44.2,0c0-3.3,0.1-6.6,0.1-10c-14.8,0.1-29.5,0.1-44.3,0C209.6-65.2,209.7-78.3,209.8-91.4z"/>
</g>
<g id="_x23_0170baff">
	<path class="st0" d="M0,0c113.9,0,227.8,0,341.8,0c-6.3,70.8-12.4,141.7-19,212.5c-3.9,45.3-7.9,90.5-12.1,135.8
		c-24.3,6.4-48.4,13.8-72.7,20.2c-22.3,6.6-44.8,12.5-67.1,19h-0.7c-21.2-6.3-42.7-11.9-64-18.2c-25.1-6.8-49.9-14.3-75-21
		c-3.3-33.9-6.2-67.8-9.1-101.8c-5.5-62.7-11.5-125.3-16.7-188C3.5,39.6,2.2,20.7,0,1.9V0 M171.4,28c-0.2,13.6,0.2,27.2-0.2,40.8
		c-39.1-0.1-78.2,0-117.2,0c0.7,13.2,2.4,26.3,4.3,39.4c36.4,1.4,72.8,0,109.1,1c-31.8,14.3-64,27.7-96,41.7
		c-2.7,1.2-5.7,2.1-8.1,3.9c0.3,14.5,2.6,28.9,3.6,43.4c19.4-0.1,38.8-0.4,58.1-0.4c15.5-0.1,31.1,0.2,46.6-0.1
		c-0.7,23.9,0.2,47.8-0.5,71.6c-10.5-1.5-20.8-3.9-31.2-5.7c-8.2-1.8-16.6-2.7-24.7-5.1c-1.2-11.5-1.9-22.9-3-34.4
		c-2.3-0.7-4.8-0.6-7.2-0.7c-11.7,0.1-23.5,0-35.2,0.1c1.2,22,3.1,44,6.5,65.9c11.6,3,23.2,6,34.7,9.1c17.7,4.8,35.6,8.8,53.4,13.6
		c2.1,0.4,4.2,1.2,6.4,1c1.2,14.5,0.3,29.1,0.5,43.6c4.1-0.7,8.1-1.7,12.1-2.9c33.6-9.1,67.1-18.4,100.7-27.6
		c1.7-13.2,2.4-26.5,3.8-39.7c3.5-40.2,7-80.4,10.7-120.6c4.3-46,8-92,12.3-138C264.3,27.9,217.9,27.8,171.4,28z"/>
</g>
<g id="_x23_29a9dfff">
	<path class="st1" d="M171.4,28c46.5-0.2,92.9,0,139.4-0.1c-4.3,46-8,92-12.3,138c-3.7,40.2-7.2,80.4-10.7,120.6
		c-1.3,13.2-2.1,26.5-3.8,39.7c-33.6,9.2-67.1,18.5-100.7,27.6c-3.9,1.2-8,2.2-12.1,2.9c-0.2-14.5,0.7-29.1-0.5-43.6
		c0.3-0.1,0.9-0.2,1.2-0.2c31.2-7.8,62.2-16.5,93.4-24.6c3.9-44.2,8.3-88.4,11.1-132.7c-26.5,0.1-53,0.1-79.5,0.2
		c-3.9,0-7.7,0-11.6-0.3c14.3-7.3,29.3-13.2,43.9-19.7c14.1-6.4,28.3-12.3,42.4-18.6c2.7-1.2,5.6-2.3,8-4.2
		c0.9-3.4,0.9-7.1,1.3-10.6c0.8-11.2,2.2-22.3,2.8-33.6c-37.5-0.3-75.1,0-112.6-0.2C171.6,55.2,171.2,41.6,171.4,28z"/>
	<path class="st1" d="M171.6,197.8c18.1-0.3,36.2,0.2,54.4,0.1c-1,18.5-2.6,37-3.5,55.6c-11.1,3.6-22.4,6.7-33.6,10.1
		c-6,1.8-12.1,3.3-17.8,5.9C171.8,245.5,170.9,221.6,171.6,197.8z"/>
</g>
<g id="_x23_cfcfcfff">
	<path class="st2" d="M53.9,68.8c39.1,0,78.2-0.1,117.2,0c0.5,43-0.1,86,0.4,129c-15.5,0.3-31.1,0-46.6,0.1
		c-19.4,0-38.8,0.3-58.1,0.4c-1-14.5-3.4-28.9-3.6-43.4c2.5-1.8,5.4-2.7,8.1-3.9c32-14,64.2-27.4,96-41.7
		c-36.4-1.1-72.8,0.3-109.1-1C56.4,95.1,54.6,82,53.9,68.8z"/>
	<path class="st2" d="M69.8,223.6c11.8-0.2,23.5-0.1,35.2-0.1c2.4,0,4.9,0,7.2,0.7c1,11.5,1.8,22.9,3,34.4
		c8.1,2.4,16.5,3.3,24.7,5.1c10.4,1.9,20.7,4.2,31.2,5.7c1,14.5-0.8,29.1,0.9,43.6c-0.3,0.1-0.9,0.2-1.2,0.2c-2.2,0.2-4.3-0.6-6.4-1
		c-17.7-4.7-35.7-8.8-53.4-13.6c-11.6-3.1-23.2-6.1-34.7-9.1C72.9,267.7,70.9,245.7,69.8,223.6z"/>
</g>
<g id="_x23_ffffffff">
	<path class="st3" d="M171.2,68.8c37.5,0.2,75.1-0.1,112.6,0.2c-0.5,11.2-2,22.4-2.8,33.6c-0.4,3.5-0.3,7.1-1.3,10.6
		c-2.4,1.9-5.3,2.9-8,4.2c-14.1,6.2-28.3,12.2-42.4,18.6c-14.6,6.6-29.6,12.4-43.9,19.7c3.8,0.3,7.7,0.3,11.6,0.3
		c26.5-0.1,53,0,79.5-0.2c-2.8,44.3-7.1,88.5-11.1,132.7c-31.2,8.1-62.2,16.8-93.4,24.6c-1.7-14.5,0.1-29.1-0.9-43.6
		c5.7-2.7,11.8-4.1,17.8-5.9c11.2-3.4,22.5-6.4,33.6-10.1c1-18.5,2.5-37,3.5-55.6c-18.1,0.1-36.3-0.4-54.4-0.1
		C171,154.8,171.7,111.8,171.2,68.8z"/>
</g>
</svg>
