<?xml version="1.0" encoding="utf-8"?>
<!-- Generator: Adobe Illustrator 27.0.1, SVG Export Plug-In . SVG Version: 6.00 Build 0)  -->
<svg version="1.1" id="Layer_1" xmlns="http://www.w3.org/2000/svg" xmlns:xlink="http://www.w3.org/1999/xlink" x="0px" y="0px"
	 viewBox="0 0 384 512" style="enable-background:new 0 0 384 512;" xml:space="preserve">
<style type="text/css">
	.st0{fill:#FFFFFF;}
</style>
<path class="st0" d="M0,256L28.5,28c2-16,15.6-28,31.8-28h168.6c15,0,27.1,12.1,27.1,27.1c0,3.2-0.6,6.5-1.7,9.5L208,160h139.3
	c20.2,0,36.7,16.4,36.7,36.7c0,7.4-2.2,14.6-6.4,20.7l-192.2,281c-5.9,8.6-15.6,13.7-25.9,13.7h-2.9c-15.7,0-28.5-12.8-28.5-28.5
	c0-2.3,0.3-4.6,0.9-6.9L176,288H32C14.3,288,0,273.7,0,256z"/>
</svg>
