<?xml version="1.0" encoding="utf-8"?>
<!-- Generator: Adobe Illustrator 27.1.1, SVG Export Plug-In . SVG Version: 6.00 Build 0)  -->
<svg version="1.1" id="Layer_1" xmlns="http://www.w3.org/2000/svg" xmlns:xlink="http://www.w3.org/1999/xlink" x="0px" y="0px"
	 viewBox="0 0 576 512" style="enable-background:new 0 0 576 512;" xml:space="preserve">
<style type="text/css">
	.st0{fill:#FFFFFF;}
</style>
<g>
	<path class="st0" d="M456,497.8c-0.8,0-1.6,0-2,0c-0.4,0-0.9-0.1-1.3-0.1c-0.3,0-0.7,0-1,0c-0.9,0.1-2,0.1-3.2,0.1H392
		c-14.2,0-25.8-11.6-25.8-25.8v-88c0-25.5-20.7-46.2-46.2-46.2h-64c-25.5,0-46.2,20.7-46.2,46.2v88c0,14.2-11.6,25.8-25.8,25.8
		h-55.9c-1,0-2.3-0.1-3.6-0.2c-0.3,0-0.6,0-0.9,0c-0.4,0-0.8,0-1.2,0c-0.9,0.1-1.8,0.2-2.4,0.2h-16c-14.2,0-25.8-11.6-25.8-25.8V360
		c0-0.4,0-1.1,0-1.3c0.1-0.5,0.1-1,0.1-1.5v-69.6c0-7.8-6.3-14.2-14.2-14.2H32c-10.2,0-17.8-7.7-17.8-17.9c0-5.5,1.7-9.7,5.5-13.7
		l256-223.1c0.2-0.2,0.5-0.4,0.7-0.7c2.8-2.8,6-3.8,12-3.8c4.6,0,9,1.4,11.8,3.6l255.2,224.4c6.9,6,6.4,10.2,6.3,11.8
		c-0.1,0.5-0.1,1-0.1,1.6c0,9.7-8.2,17.9-17.8,17.9h-32c-3.8,0-7.4,1.5-10,4.2c-2.7,2.7-4.1,6.3-4.1,10.1l0.7,160.2
		c0,1.8-0.1,4-0.4,6.5c-0.1,0.5-0.1,1-0.1,1.6V472c0,14.2-11.6,25.8-25.8,25.8H456z"/>
	<path d="M288.4,28.3c1.4,0,2.5,0.3,2.9,0.5l254.7,223.9c0,0,0,0,0,0c0.6,0.5,1.1,1,1.4,1.3c0,0.4,0,0.9,0,1.4
		c0,2.2-2.2,3.8-3.7,3.8h-32c-7.5,0-14.8,3-20.1,8.3c-5.3,5.3-8.3,12.6-8.3,20.1l0.7,160.1c0,1.4-0.1,3-0.3,4.9
		c-0.1,1-0.2,2.1-0.2,3.1V472c0,6.4-5.2,11.7-11.7,11.7h-16c-0.3,0-0.8,0-1,0c-0.8-0.1-1.6-0.1-2.3-0.1c-0.7,0-1.3,0-2,0.1
		c-0.4,0-1.4,0-2.2,0H416h-24c-6.4,0-11.7-5.2-11.7-11.7v-24v-64c0-33.3-27.1-60.3-60.3-60.3h-64c-33.3,0-60.3,27.1-60.3,60.3v64v24
		c0,6.4-5.2,11.7-11.7,11.7h-24h-31.9c-0.6,0-1.6-0.1-2.6-0.1c-0.6,0-1.3-0.1-1.9-0.1c-0.8,0-1.6,0-2.4,0.1c-0.5,0-1.1,0.1-1.3,0.1
		H104c-6.4,0-11.7-5.2-11.7-11.7V360c0-0.1,0-0.3,0-0.4c0.1-0.8,0.1-1.6,0.1-2.4v-69.6c0-15.7-12.7-28.3-28.3-28.3H32
		c-2.4,0-3.7-1.3-3.7-3.8c0-1.6,0.2-2.3,1.2-3.4L285,29.4c0.3-0.3,0.7-0.6,1-0.9C286.5,28.4,287.2,28.3,288.4,28.3 M288.4,0
		c-7,0-15,1-22,8L10,231.5c-7,7-10,15-10,24c0,18.1,14,32.1,32,32.1h32.1v69.6c-0.1,0.9-0.1,1.9-0.1,2.8v112c0,22.1,17.9,40,40,40
		h16c1.2,0,2.4-0.1,3.6-0.2c1.5,0.1,3,0.2,4.5,0.2H160h24c22.1,0,40-17.9,40-40v-24v-64c0-17.7,14.3-32,32-32h64
		c17.7,0,32,14.3,32,32v64v24c0,22.1,17.9,40,40,40h24h32.5c1.4,0,2.8,0,4.2-0.1c1.1,0.1,2.2,0.1,3.3,0.1h16c22.1,0,40-17.9,40-40
		v-16.1c0.3-2.7,0.5-5.4,0.5-8.1l-0.7-160.2h32c17,0,32-14.1,32-32.1c1-9-3-17-11-24L309.4,7C303.4,2,295.4,0,288.4,0L288.4,0z"/>
</g>
</svg>
