<?xml version="1.0" encoding="utf-8"?>
<!-- Generator: Adobe Illustrator 26.3.1, SVG Export Plug-In . SVG Version: 6.00 Build 0)  -->
<svg version="1.1" id="Layer_1" xmlns="http://www.w3.org/2000/svg" xmlns:xlink="http://www.w3.org/1999/xlink" x="0px" y="0px"
	 viewBox="0 0 362.8 411.4" style="enable-background:new 0 0 362.8 411.4;" xml:space="preserve">
<style type="text/css">
	.st0{fill:#E44D26;}
	.st1{fill:#F16529;}
	.st2{fill:#EBEBEB;}
	.st3{fill:#FFFFFF;}
</style>
<path d="M33.8-100.6h23v22.8H78v-22.8h23v69H78v-23H57v23H33.8 M131.4-77.6h-20.3v-23h63.7v23h-20.4v46h-23 M184.9-100.6H209
	l14.8,24.3l14.8-24.3h24.1v69h-23v-34.2L223.6-41l-16.1-24.8v34.2h-22.6 M274.1-100.6h23v46.2h32.6v22.8h-55.6"/>
<path class="st0" d="M33,370.4L0,0h362.8l-33,370.2l-148.7,41.2"/>
<path class="st1" d="M181.4,379.9V30.4h148.3l-28.3,316"/>
<path class="st2" d="M67.4,75.7h114v45.4h-64.2l4.2,46.5h60v45.3H79.8 M81.8,235.7h45.6l3.2,36.3l50.8,13.6V333l-93.2-26"/>
<path class="st3" d="M295,75.7H181.2v45.4h109.6 M286.7,167.6H181.2V213h56l-5.3,59l-50.7,13.6v47.2l93-25.8"/>
</svg>
