<?xml version="1.0" encoding="utf-8"?>
<!-- Generator: Adobe Illustrator 27.0.1, SVG Export Plug-In . SVG Version: 6.00 Build 0)  -->
<svg version="1.1"
	 id="svg3255" xmlns:inkscape="http://www.inkscape.org/namespaces/inkscape" xmlns:sodipodi="http://sodipodi.sourceforge.net/DTD/sodipodi-0.dtd" xmlns:svg="http://www.w3.org/2000/svg" xmlns:rdf="http://www.w3.org/1999/02/22-rdf-syntax-ns#" xmlns:dc="http://purl.org/dc/elements/1.1/" xmlns:cc="http://creativecommons.org/ns#" inkscape:export-ydpi="90" inkscape:version="0.48.4 r9939"
	 xmlns="http://www.w3.org/2000/svg" xmlns:xlink="http://www.w3.org/1999/xlink" x="0px" y="0px" viewBox="0 0 511.7 356.9"
	 style="enable-background:new 0 0 511.7 356.9;" xml:space="preserve">
<style type="text/css">
	.st0{fill:#492C2C;}
	.st1{fill:#FFFFFF;}
	.st2{fill:#381817;}
	.st3{fill:#BFCFD1;}
	.st4{fill:#F4E3D4;}
	.st5{fill:#DCE0E2;}
	.st6{fill:#CED3D6;}
</style>
<g>
	<g>
		<path class="st0" d="M226.4,274.7l-8.5,21.8c-1.6,4.1,1.4,8.6,5.8,8.6h121.7c4.4,0,7.4-4.4,5.8-8.6l-8.5-21.8H226.4z"/>
		<g id="rect3263-1">
			<path class="st1" d="M120,271.8c-5.1,0-9.3-4.2-9.3-9.3V33.5c0-5.1,4.2-9.3,9.3-9.3h331.6c5.1,0,9.3,4.2,9.3,9.3v229.1
				c0,5.1-4.2,9.3-9.3,9.3H120z"/>
			<path class="st2" d="M451.6,28.5c2.8,0,5,2.2,5,5v229.1c0,2.8-2.2,5-5,5H120c-2.8,0-5-2.2-5-5V33.5c0-2.8,2.2-5,5-5H451.6
				 M451.6,20H120c-7.4,0-13.5,6.1-13.5,13.5v229.1c0,7.4,6.1,13.5,13.5,13.5h331.6c7.4,0,13.5-6.1,13.5-13.5V33.5
				C465.1,26.1,459.1,20,451.6,20L451.6,20z"/>
		</g>
		<rect id="rect4182-1" x="139.6" y="82.4" class="st3" width="292.5" height="37.5"/>
		<g id="rect4182-1_00000059988237763842428230000016537968555676242099_">
			<path class="st4" d="M139.6,38.7c0-2.8,2.2-5,5-5h99.2c2.8,0,5,2.2,5,5v35.6c0,2.8-2.2,5-5,5h-99.2c-2.8,0-5-2.2-5-5V38.7z"/>
		</g>
		<rect id="rect4182-4-51-2-2" x="361.8" y="123.7" class="st5" width="70.3" height="139"/>
		
			<rect id="rect4182-4-51-2-2_00000116235472642340773590000003339009398826279857_" x="287.7" y="123.7" class="st6" width="70.3" height="139"/>
		
			<rect id="rect4182-4-51-2-2_00000155849474942637868880000017389216246903490953_" x="213.7" y="123.7" class="st5" width="70.3" height="139"/>
		
			<rect id="rect4182-4-51-2-2_00000018196095267940989430000018208242277918146486_" x="139.6" y="123.7" class="st6" width="70.3" height="139"/>
	</g>
	<g>
		<g id="rect3263-1-4-9">
			<path class="st1" d="M423.9,315.8c-3.1,0-5.7-2.6-5.7-5.7V192.8c0-3.1,2.6-5.7,5.7-5.7h61.4c3.1,0,5.7,2.6,5.7,5.7v117.3
				c0,3.1-2.6,5.7-5.7,5.7H423.9z"/>
			<path class="st2" d="M485.3,187.8c2.8,0,5,2.2,5,5v117.3c0,2.8-2.2,5-5,5h-61.4c-2.8,0-5-2.2-5-5V192.8c0-2.8,2.2-5,5-5H485.3
				 M485.3,186.4h-61.4c-3.5,0-6.4,2.9-6.4,6.4v117.3c0,3.5,2.9,6.4,6.4,6.4h61.4c3.5,0,6.4-2.9,6.4-6.4V192.8
				C491.7,189.2,488.8,186.4,485.3,186.4L485.3,186.4z"/>
		</g>
		<rect id="rect4182-16" x="421.7" y="222.9" class="st3" width="65.8" height="30.2"/>
		<g id="rect4182-16_00000059989233567906587280000015337427654713002895_">
			<path class="st4" d="M421.7,198c0-2.8,2.2-5,5-5h22.9c2.8,0,5,2.2,5,5v16.2c0,2.8-2.2,5-5,5h-22.9c-2.8,0-5-2.2-5-5V198z"/>
		</g>
		<rect id="rect4182-16-8" x="421.7" y="256.8" class="st5" width="65.8" height="51.8"/>
	</g>
	<g>
		<g id="rect3263-1-4">
			<path class="st1" d="M27.8,335.5c-3.5,0-6.4-2.9-6.4-6.4V166.4c0-3.5,2.9-6.4,6.4-6.4h234.3c3.5,0,6.4,2.9,6.4,6.4v162.7
				c0,3.5-2.9,6.4-6.4,6.4H27.8z"/>
			<path class="st2" d="M262.1,161.4c2.8,0,5,2.2,5,5v162.7c0,2.8-2.2,5-5,5H27.8c-2.8,0-5-2.2-5-5V166.4c0-2.8,2.2-5,5-5H262.1
				 M262.1,158.5H27.8c-4.3,0-7.8,3.5-7.8,7.8v162.7c0,4.3,3.5,7.8,7.8,7.8h234.3c4.3,0,7.8-3.5,7.8-7.8V166.4
				C269.9,162,266.4,158.5,262.1,158.5L262.1,158.5z"/>
		</g>
		<rect id="rect4182" x="27.3" y="206.7" class="st3" width="235.4" height="43.2"/>
		<g id="rect4182_00000167373155732945647010000004769581289005063866_">
			<path class="st4" d="M27.3,172.5c0-2.8,2.2-5,5-5H70c2.8,0,5,2.2,5,5v26c0,2.8-2.2,5-5,5H32.3c-2.8,0-5-2.2-5-5V172.5z"/>
		</g>
		<rect id="rect4182-4" x="27.3" y="254.2" class="st5" width="75.5" height="75.6"/>
		<rect id="rect4182-4-5" x="107.2" y="254.2" class="st6" width="75.5" height="75.6"/>
		<rect id="rect4182-4-51" x="187.2" y="254.2" class="st5" width="75.5" height="75.6"/>
	</g>
</g>
</svg>
