<?xml version="1.0" encoding="utf-8"?>
<!-- Generator: Adobe Illustrator 27.4.1, SVG Export Plug-In . SVG Version: 6.00 Build 0)  -->
<svg version="1.1" id="Layer_1" xmlns="http://www.w3.org/2000/svg" xmlns:xlink="http://www.w3.org/1999/xlink" x="0px" y="0px"
	 viewBox="0 0 691 563" style="enable-background:new 0 0 691 563;" xml:space="preserve">
<style type="text/css">
	.st0{fill:#FFFFFF;}
</style>
<g>
	<path class="st0" d="M193.5,550.3c-46.7,0-84.8-38-84.8-84.8v-272c0-46.7,38-84.8,84.8-84.8h107.2V57.5c0-24.7,20.1-44.8,44.8-44.8
		c24.7,0,44.8,20.1,44.8,44.8v51.2h107.2c46.7,0,84.8,38,84.8,84.8v272c0,46.7-38,84.8-84.8,84.8H193.5z M425.5,422.3
		c-1.8,0-3.2,1.5-3.2,3.2s1.5,3.2,3.2,3.2h32c1.8,0,3.2-1.5,3.2-3.2s-1.5-3.2-3.2-3.2H425.5z M329.5,422.3c-1.8,0-3.2,1.5-3.2,3.2
		s1.5,3.2,3.2,3.2h32c1.8,0,3.2-1.5,3.2-3.2s-1.5-3.2-3.2-3.2H329.5z M233.5,422.3c-1.8,0-3.2,1.5-3.2,3.2s1.5,3.2,3.2,3.2h32
		c1.8,0,3.2-1.5,3.2-3.2s-1.5-3.2-3.2-3.2H233.5z M441.5,254.3c-15,0-27.2,12.2-27.2,27.2s12.2,27.2,27.2,27.2s27.2-12.2,27.2-27.2
		S456.5,254.3,441.5,254.3z M249.5,254.3c-15,0-27.2,12.2-27.2,27.2s12.2,27.2,27.2,27.2s27.2-12.2,27.2-27.2
		S264.5,254.3,249.5,254.3z M588.8,454.3V236.8h28.8c33.5,0,60.8,27.3,60.8,60.8v96c0,33.5-27.3,60.8-60.8,60.8H588.8z M73.5,454.3
		c-33.5,0-60.8-27.3-60.8-60.8v-96c0-33.5,27.3-60.8,60.8-60.8h28.8v217.5H73.5z"/>
	<path d="M345.5,25.5c17.7,0,32,14.3,32,32v64h120c39.8,0,72,32.2,72,72v272c0,39.8-32.2,72-72,72h-304c-39.8,0-72-32.2-72-72v-272
		c0-39.8,32.2-72,72-72h120v-64C313.5,39.8,327.8,25.5,345.5,25.5 M441.5,321.5c22.1,0,40-17.9,40-40s-17.9-40-40-40s-40,17.9-40,40
		S419.4,321.5,441.5,321.5 M249.5,321.5c22.1,0,40-17.9,40-40s-17.9-40-40-40s-40,17.9-40,40S227.4,321.5,249.5,321.5 M425.5,441.5
		h32c8.8,0,16-7.2,16-16c0-8.8-7.2-16-16-16h-32c-8.8,0-16,7.2-16,16C409.5,434.3,416.7,441.5,425.5,441.5 M329.5,441.5h32
		c8.8,0,16-7.2,16-16c0-8.8-7.2-16-16-16h-32c-8.8,0-16,7.2-16,16C313.5,434.3,320.7,441.5,329.5,441.5 M233.5,441.5h32
		c8.8,0,16-7.2,16-16c0-8.8-7.2-16-16-16h-32c-8.8,0-16,7.2-16,16C217.5,434.3,224.7,441.5,233.5,441.5 M617.5,249.5
		c26.5,0,48,21.5,48,48v96c0,26.5-21.5,48-48,48h-16v-192H617.5 M89.5,249.5v192h-16c-26.5,0-48-21.5-48-48v-96
		c0-26.5,21.5-48,48-48H89.5 M345.5,0C313.8,0,288,25.8,288,57.5V96h-94.5c-26.1,0-50.6,10.1-69,28.5S96,167.4,96,193.5V224h-6.5
		h-16C33,224,0,257,0,297.5v96C0,434,33,467,73.5,467h16H96c0.4,25.5,10.5,49.4,28.5,67.5c18.4,18.4,42.9,28.5,69,28.5h304
		c26.1,0,50.6-10.1,69-28.5c18.1-18.1,28.2-42,28.5-67.5h6.5h16c40.5,0,73.5-33,73.5-73.5v-96c0-40.5-33-73.5-73.5-73.5h-16H595
		v-30.5c0-26.1-10.1-50.6-28.5-69c-18.4-18.4-42.9-28.5-69-28.5H403V57.5C403,25.8,377.2,0,345.5,0L345.5,0z M441.5,296
		c-8,0-14.5-6.5-14.5-14.5s6.5-14.5,14.5-14.5s14.5,6.5,14.5,14.5S449.5,296,441.5,296L441.5,296z M249.5,296
		c-8,0-14.5-6.5-14.5-14.5s6.5-14.5,14.5-14.5s14.5,6.5,14.5,14.5S257.5,296,249.5,296L249.5,296z"/>
</g>
</svg>
