<?xml version="1.0" encoding="utf-8"?>
<svg version="1.1" id="Layer_1" xmlns="http://www.w3.org/2000/svg"
	xmlns:xlink="http://www.w3.org/1999/xlink" x="0px" y="0px"
	viewBox="0 0 250.6 250.6" style="enable-background:new 0 0 250.6 250.6;" xml:space="preserve">
<style type="text/css">
	.st0{fill:none;stroke:#fff;stroke-width:20;stroke-miterlimit:10;}
	.f0{fill:#fff;};
</style>
<g>
	<path class="f0" d="M125.3,19.9c58.2,0,105.4,47.2,105.4,105.4s-47.2,105.4-105.4,105.4S19.9,183.5,19.9,125.3S67.1,19.9,125.3,19.9 M125.3,0
		C91.8,0,60.4,13,36.7,36.7C13.1,60.4,0,91.8,0,125.3s13,64.9,36.7,88.6s55.1,36.7,88.6,36.7s64.9-13,88.6-36.7s36.7-55.1,36.7-88.6
		s-13-64.9-36.7-88.6C190.2,13.1,158.8,0,125.3,0L125.3,0z"/>
	<polyline class="st0" points="92.1,19.9 98.2,174 228.5,174 	"/>
</g>
</svg>